<svg id="Layer_1" data-name="Layer 1" xmlns="http://www.w3.org/2000/svg" viewBox="0 0 152.93 79.67"><title>brand</title><path d="M1102.74,346.19l-.46,1.6c0,.23.23.61.15.84a25.53,25.53,0,0,1-.53,2.58c-.15.68-.3,1.37-.46,2a5.78,5.78,0,0,1-.46,1.52,9.1,9.1,0,0,0-.83,3.65,20.36,20.36,0,0,0-1,2.43,5.37,5.37,0,0,1-.84,1.9,5.94,5.94,0,0,0-.91,2.43,26.3,26.3,0,0,1-1.06,2.81V369c.3,1,1.21,1.6.53,2.58.38.61.15,1.29.23,1.9a2.32,2.32,0,0,1-.61.61c-.68.15-1.37.23-2.2.38a10.46,10.46,0,0,0-.46,1.21,18.9,18.9,0,0,1-1.52,4.56c-.38.61-.08,1.29-.53,1.82-.23,1.9-1.14,3.65-1.59,5.54-.15.38-.3.76-.46,1.06a3.7,3.7,0,0,1-.46,1c.15,1.06-.68,2.2,0,3.57a17.83,17.83,0,0,1-1.82.68c-.61.23-1.22-.15-1.75-.38a12.69,12.69,0,0,1-1.52-.61,2.46,2.46,0,0,1-1.37-1,5.92,5.92,0,0,1-1.37-4.71,9.77,9.77,0,0,1,.61-2.13c0-.15.08-.23.08-.38.08-1,.15-2,.3-2.89a6.71,6.71,0,0,1,.84-2.35,17.27,17.27,0,0,0,1.14-2.73,10.38,10.38,0,0,0,.3-2.73c-.15-.08-.23-.23-.38-.3a4,4,0,0,0-2.43.3c-.68.23-1.44.46-2.13.61l-.46.23a1.64,1.64,0,0,1-1.22.3c-.83,1-1.75,2.05-2.73,3h-1.44a7,7,0,0,1-.61-1,11.69,11.69,0,0,0,.76-3.87c.91-1.06,1.75-2.05,2.43-2.81,1.82-.76,3.65-.68,5.24-1.44h.23a10.85,10.85,0,0,0,2.2-.23,11.39,11.39,0,0,1,2.28,0,7.14,7.14,0,0,0,1.22-1.75,47.88,47.88,0,0,0,1.67-4.63,27.06,27.06,0,0,1,2.2-5.09,16.53,16.53,0,0,0,1.21-3.42c.46-1.37.84-2.73,1.37-4.1a4,4,0,0,0,.23-.91,4,4,0,0,1,.23-.91c.23-.91.53-1.75.68-2.66a18.42,18.42,0,0,0,0-2.05c-.23-.23-.53-.53-1-.91a14.53,14.53,0,0,0-1.82,0,4.92,4.92,0,0,0-2.43.84,9,9,0,0,1-2.13.91,24.55,24.55,0,0,0-7.06,3.49,13.34,13.34,0,0,0-2.58,2.05,10.23,10.23,0,0,1-2.05,1.52,4.38,4.38,0,0,0-1.44,1.44c-.38.53-.91.91-1.37,1.44a2.52,2.52,0,0,0-.68.84c-.08.3-.46.53-.46,1a2.6,2.6,0,0,1-.68,1c-1.06,1.14-1.37,2.58-1.9,4a11.84,11.84,0,0,0-.23,2.35,3.41,3.41,0,0,1-.15.61c.46.84.38,1.9,1.29,2.58a3.34,3.34,0,0,1-.46.53h-1.52a6.75,6.75,0,0,0-.76-.46,2.87,2.87,0,0,1-1.75-1.52c-.3-.46-.83-.84-1.22-1.29a6,6,0,0,1-1.06-2.58,9.21,9.21,0,0,1-.68-3.49,9.4,9.4,0,0,1,1-3.8c.15-.23.15-.53.3-.76a1.77,1.77,0,0,1,.3-.76,31.05,31.05,0,0,0,2.89-3.42,20.42,20.42,0,0,1,3.12-2.51l1.67-1.22a20.62,20.62,0,0,1,4.63-2.89c.91-.46,1.82-.84,2.73-1.29l1.21-.3a6.05,6.05,0,0,0,.46-.61,12.84,12.84,0,0,0,3-.91,3.76,3.76,0,0,1,1.21-.38c1.22.23,2.28-.46,3.49-.53.23-.38.61-.15.91-.23.68-.15,1.44-.23,2.13-.38a.27.27,0,0,0,.15-.08c1,.53,2.05,0,3,.38a14.71,14.71,0,0,0,2.89.68c.76.61,1.52,1.29,2.36,2.05.68.68.83,1.75,1.44,2.58-.08.15,0,.3,0,.46a5.39,5.39,0,0,0,.53,2A.68.68,0,0,1,1102.74,346.19Zm-34,9h-.23v.08h.23Zm.53-.46c-.08-.08-.15-.08-.3-.08l.08-.08c-.08-.08-.15-.15-.15-.23l-.08.08c.08.08.08.15.23.15l-.08.08c.08.08.15.08.23.15Zm.23-.53h-.23v.08h.23Zm.3-1.06h-.3v.08h.3Zm.38.46h-.08v.23h.08Zm.38-.46h-.3v.08h.3Zm.38-.84h-.08v.3h.08Zm14.2,33H1085v.23h.08Zm.08-1.14c.15.15.3.23.38.38a1.34,1.34,0,0,0,.38-.3v-.68a.57.57,0,0,0,.3-.08.28.28,0,0,0-.08-.23,1,1,0,0,0-.23.3h-.23V384A3.69,3.69,0,0,1,1085.19,384.24Zm.3-2.05a.07.07,0,0,0,.08.08c.08,0,.15-.08.15-.23v.08l.23-.23a.07.07,0,0,1-.08-.08.39.39,0,0,0-.15.3V382C1085.65,382.11,1085.57,382.19,1085.49,382.19Zm0,1.29c.08,0,.15.08.23.15v-.08c0-.08-.08-.15-.15-.23C1085.57,383.41,1085.49,383.41,1085.49,383.48Zm0,2.81h.23v-.08h-.23Zm.08.61a.07.07,0,0,1-.08.08c.08.08.15.15.23.15S1085.65,387,1085.57,386.9Zm.15-1.06h.23v-.15h-.23Zm.23,1.29a.28.28,0,0,0-.23.08.27.27,0,0,1,.08.15C1085.87,387.28,1085.87,387.2,1085.95,387.13Zm-.15-5.77v.23a.83.83,0,0,1,.38-.08v-.15Zm.38,3.19c-.08-.08-.08-.15-.23-.15.08.08.15.15.15.23Zm0,2.43-.08-.08c0,.08-.08.15-.15.23l.08.08C1086.1,387.13,1086.1,387.05,1086.18,387Zm-.15-6.68h.15v-.23H1086Zm.15,7.6H1086v.3h.15Zm.08-4.25v-.08a.07.07,0,0,1-.08.08l.23.23c0-.08,0-.08.08-.08C1086.4,383.71,1086.33,383.63,1086.25,383.63Zm6.91-13.14c-.61-.23-.68.15-.83.38h-.3c0-.08,0-.15-.08-.15l-.15.15a3.66,3.66,0,0,0-.53-.23v.53H1091a3.69,3.69,0,0,0-.23-.53c.08,0,.15-.08.23-.08a.28.28,0,0,0-.23-.08v.15h-.76a2.52,2.52,0,0,1,.23.46,1.48,1.48,0,0,0-.53.08v-.53h.3a.28.28,0,0,1-.08-.23l-.23.23h-.23c0-.08-.08-.15-.08-.23-.08.08-.08.15-.15.23-.23,0-.53-.15-.53.23a4.28,4.28,0,0,1-.46.61l.23.46c-.08,0-.15.08-.23.23h.23v.53h.46c0,.08-.08.23-.15.23-.46,0-.3.3-.3.53h-.23l-.23.23c0-.08,0-.08-.08-.08l.23-.23c-.08-.08-.23-.15-.38-.3a4.92,4.92,0,0,0-.15.84,2.56,2.56,0,0,1-.46-.23v-.46c-.08,0-.15.08-.23.15.08.08.15.23.23.3v.53a2.25,2.25,0,0,0-.76-.15,1.05,1.05,0,0,0-.23.3l.46.23a1.88,1.88,0,0,0,.08.61c.08-.08.15-.08.23-.15.08-.3.15-.61.23-.84a2.59,2.59,0,0,0,.76-.08c.08-.3.23-.23.46-.08a.4.4,0,0,1,.3.15v-.53c.08,0,.15-.08.23-.08-.08-.08-.15-.08-.23-.15,0-.38.3-.23.53-.3a1.36,1.36,0,0,1-.3,1.06h-.23c0,.08.08.15.08.23.08-.08.15-.15.15-.23h.53v.23c-.38,0-.23.3-.23.53h-.3c0-.38-.23-.3-.38-.23-.3.08-.61.23-.84.3l.46.46a.93.93,0,0,0-.15.23h.15v-.23h.3a1.05,1.05,0,0,1-.3.23,1.78,1.78,0,0,1,.53.38v-.61h.46a2.34,2.34,0,0,0-.15.84c.38-.23.68-.3.91-.46,0-.46-.53-.53-.68-.91.15,0,.3-.08.46-.08a2.54,2.54,0,0,0-.23-.46l.23-.23c.38,0,.23-.3.3-.46s.15-.23.23-.3v-.53h.23l.23-.23a.28.28,0,0,0,.08.23c.15,0,.3-.08.76-.15v.08h.23v-.08h-.23c-.38-.23-.53-.3-.76-.46a2.62,2.62,0,0,0-.23-.91c.15,0,.3-.15.46-.23.08.3-.08.68.23,1.22v-1.22c.23-.08.53.08.53-.3h.23c.08.08.08.15.15.23,0-.08.08-.15.23-.08C1092.63,370.87,1092.86,370.72,1093.17,370.49Zm-6.91,7.82v.23a4.35,4.35,0,0,1,1-.08c0-.08-.08-.08-.08-.15Zm0,4.1a.82.82,0,0,0,.08.38h.08v-.46A.26.26,0,0,1,1086.25,382.42Zm.23.76a.07.07,0,0,1-.08-.08c-.08.08-.15.15-.15.23v.08Zm0,3h-.23v.08h.23Zm-.08-8.74V377h-.08v.46Zm.15-2.05c.08-.08.15-.15.15-.23-.08.08-.15.08-.23.15A.07.07,0,0,1,1086.56,375.43Zm-.08,1.14a.4.4,0,0,0,.3.15c-.08,0-.08,0-.08.08a.16.16,0,0,1,.15.15c.08,0,.08,0,.08-.08s-.08-.08-.23-.08a.07.07,0,0,1,.08-.08l-.23-.23C1086.56,376.57,1086.56,376.57,1086.48,376.57Zm0,8.13v.08h.53v-.08Zm0,1.14h.23v-.15h-.23Zm.46,1.67a.07.07,0,0,0-.08-.08c0,.08-.08.15-.08.23h-.08c-.08,0-.15.08-.23.15a.07.07,0,0,1,.08.08c.08-.08.15-.15.15-.23h.08C1086.86,387.66,1086.86,387.58,1086.94,387.51Zm-.38-14.36h.08v-.23h-.08Zm.08,10.48a4.64,4.64,0,0,1,.61.38,3.64,3.64,0,0,0,.53-.23c0-.08-.08-.15-.08-.23A4.34,4.34,0,0,1,1086.63,383.63Zm1.9-.84h-.3c0-.15.15-.46-.23-.46a1.29,1.29,0,0,1,.08-.53,2.34,2.34,0,0,0,.68-.08,5.71,5.71,0,0,1-.68-.68,2.34,2.34,0,0,1-.08.76h-.23a4.37,4.37,0,0,0-.08-1h-.23a2.57,2.57,0,0,0-.08-.76h-.15v.76H1087v.23c-.53.15-.23.46-.23.84a3.21,3.21,0,0,0,.46-.61l.23.23c.15.08.23.23.3.3,0,.3-.61.46-.15.76.15-.08.23-.15.38-.23.08.15-.15.46.23.46a2.76,2.76,0,0,1-.23.53h.53Zm-1.82-10.71h.3V372h-.3Zm0,8.05v.08h.3v-.08Zm.53-1.14a.28.28,0,0,1-.08-.23c-.15,0-.23.08-.38.08V379Zm-.3.76v-.23h-.15v.23Zm.08,1.06v-.08c-.08,0-.08-.08-.15-.15s-.08,0-.08.08A.58.58,0,0,0,1087,380.82Zm-.08,1.52V382h-.15v.3Zm-.15.3v.68c.08,0,.15-.08.23-.08a1.67,1.67,0,0,1-.08-.61Zm.15,1.75v-.3h-.15v.3Zm.08,1c-.08-.08-.08-.15-.15-.23a.07.07,0,0,0-.08.08C1086.86,385.3,1086.86,385.38,1087,385.38Zm.23.84c-.08,0-.08,0-.08-.08a.39.39,0,0,0-.15.3c0-.08,0-.08-.08-.08s-.08.15-.15.15,0,.08.08.08.08-.08.08-.23c.08,0,.08,0,.08.08Zm0-10v-.08a.16.16,0,0,0-.15-.15.07.07,0,0,0-.08.08c.08,0,.15.08.23.08v.08c0,.08.08.15.15.23a.07.07,0,0,1,.08-.08C1087.39,376.34,1087.32,376.27,1087.24,376.27Zm-.23,1.37c.08,0,.15.08.23.15v-.08a.16.16,0,0,0-.15-.15A.07.07,0,0,0,1087,377.63Zm.23,3.42v.23l-.23-.23Zm.68,4.33a.75.75,0,0,0-.38.3,4.41,4.41,0,0,0-.53-.3v.38c.3.08.61.23.91.3Zm-.68-14.13v.15a.45.45,0,0,0,.46-.23A1,1,0,0,0,1087.24,371.25Zm0,2,.23-.23a.07.07,0,0,1-.08-.08c-.08.08-.15.15-.15.23Zm0,7.82v-.23h.23Zm.15-5.54v-.3h-.08v.3Zm0,7.82v-.23h-.08v.23Zm-.08,1.52v.3h.08v-.3Zm.15-6.84v.68a3.92,3.92,0,0,0,.53-.46c.08-.08.23-.15.23-.3s-.08-.46.3-.46a3.82,3.82,0,0,1-.53-.38v1.14A3.73,3.73,0,0,0,1087.47,378Zm.3,8.43h-.3v.15h.3Zm-.23-14.74v.23a1,1,0,0,1,.46-.08c0-.08,0-.15-.08-.15Zm.15,4.63a2.25,2.25,0,0,0,.3-.23.28.28,0,0,0-.08-.23C1087.92,376,1087.77,376.19,1087.7,376.34Zm.53,3.65a7,7,0,0,0-.53-1,8.41,8.41,0,0,0,.15,1.06A1,1,0,0,0,1088.23,380Zm-.46-7.75v.15a.46.46,0,0,0,.46-.23C1088.08,372.16,1087.92,372.24,1087.77,372.24Zm.15,8.35c-.08.08-.15.15-.15.23.08-.08.15-.08.23-.15Zm-.08-9.42a.83.83,0,0,1,.38-.08v-.15C1088.08,370.95,1088,370.95,1087.85,371.18Zm.08,13.22v-.3h-.08v.3Zm0-8.58v-.08C1087.85,375.89,1087.85,376,1087.92,375.81Zm.08-3v.08h.23v-.08Zm0,1.44c0,.08.08.15.15.23a.07.07,0,0,1,.08-.08C1088.15,374.29,1088.08,374.21,1088,374.21Zm.23,10.48H1088v.08h.23Zm.3-4.71a2.51,2.51,0,0,1-.46.23h.91C1089,380.06,1089,380,1088.53,380Zm-.08-3.27c.15-.15.23-.3.46-.53a3,3,0,0,1-.68.08A.86.86,0,0,0,1088.46,376.72Zm-.15-6.53v.23c.15-.08.3-.08.46-.15a.07.07,0,0,0-.08-.08Zm1,8.05c-.08-.38-.3-.23-.53-.23,0-.23.15-.46-.23-.53,0,.23-.15.53.23.53v.23c-.08.08-.15.23-.23.3a.28.28,0,0,0-.23.08c.08,0,.15.08.23.15a.28.28,0,0,0,.08.23c.08-.08.08-.15.15-.23s.15-.08.23-.08c-.08-.08-.15-.15-.23-.15v-.3Zm-.84,5.62h-.08v.23h.08Zm.3-11.93-.23.23v-.23Zm-.23,1.52h.23v.23ZM1089,375a3.81,3.81,0,0,0-.23.53h-.23V375Zm-.46,3.57h.23v.23h-.23Zm0,3.65c.08.08.15.08.23.15v-.08l-.15-.15A.07.07,0,0,0,1088.53,382.19Zm1.75-9.27a3.75,3.75,0,0,1-.53.23v-.91c-.3-.08-.61-.23-1-.3a1.69,1.69,0,0,1,.23-.38l-.23-.68c.53.23,1,.46,1.52.68C1089.82,372,1090.05,372.47,1090.28,372.92Zm-.23,3.8a2.27,2.27,0,0,1-.61-.3c-.15.23-.3.38-.46.61h-.23a.27.27,0,0,1,.08.15l.15-.15a2.35,2.35,0,0,0,.76-.08C1089.82,376.95,1089.9,376.8,1090.05,376.72Zm-1.06,2.73v-.08h-.23v.08Zm0,3c-.08-.08-.15-.08-.23-.15v.23C1088.84,382.57,1088.91,382.49,1089,382.49Zm.53-9.87c-.15,0-.3.08-.46.08a.28.28,0,0,1-.08-.23h.53Zm-.3,8H1089c.08.15.08.3.15.46h.08Zm-.15-11.09a.27.27,0,0,1,.15.08c0,.08,0,.08.08.08v-.08c-.08-.08-.08-.15-.15-.15S1089.06,369.43,1089.06,369.5Zm.08-.91h.08v-.23h-.08Zm.08,9.19v-.3h-.08v.3Zm0,4h-.08V382h.08Zm.08-12.15v.3c.15-.08.38-.08.53-.15,0-.08-.08-.08-.08-.15Zm.08,1.21a.28.28,0,0,1-.08-.23h.23C1089.44,370.72,1089.44,370.8,1089.37,370.87Zm.15,2.28h-.23l.15-.15C1089.44,373.08,1089.52,373.08,1089.52,373.15Zm-.15,6.61c.08,0,.08-.08.08-.15s-.08.08-.15.08Zm.08.3h-.08v.23h.08Zm0-11.17.68.68c-.08-.46-.15-.61-.15-.76A1.12,1.12,0,0,1,1089.44,368.9Zm.3,10.1c-.15,0-.3.08-.23.38l.23.23Zm0-7.29h-.23v.15h.23Zm-.23,1.44h.23c0,.08-.08.15-.15.23C1089.6,373.3,1089.52,373.23,1089.52,373.15Zm.15.84a.28.28,0,0,1,.08.23h-.23C1089.6,374.14,1089.67,374.06,1089.67,374Zm0,4.79a.07.07,0,0,1,.08-.08c-.08-.08-.15-.15-.23-.15C1089.6,378.62,1089.6,378.7,1089.67,378.77Zm0-10.25h.38a4.08,4.08,0,0,1-.08-.61A4.06,4.06,0,0,0,1089.67,368.52Zm.23,1.06c.23.38.3.61.76.76a2.52,2.52,0,0,0,.46-.23h.76a2.54,2.54,0,0,0-.46-.46C1091,370,1090.58,370,1089.9,369.58Zm.38,7.9a3.3,3.3,0,0,0-.38.08l.23.46c.08,0,.08,0,.15-.08Zm-.3-1.9a2.27,2.27,0,0,0,.3-.23.28.28,0,0,0-.08-.23Zm1.14,1.06-.15-.15h-.46a2.89,2.89,0,0,0-.46-.38v.61l.46-.23a.83.83,0,0,1,.08.38A3.75,3.75,0,0,1,1091.11,376.65Zm-.91,1.9h-.08v.23h.08Zm0-3.57.3,2.35a.07.07,0,0,1-.08-.08c-.08.08-.08.15-.15.23v.08Zm-.15-2.43.15.15c.08.08.15.08.3.23,0-.3-.08-.46-.08-.61A.69.69,0,0,0,1090.35,374.9Zm.15-6.38h.3v-.08h-.3Zm.3,4.41h-.3c.08.08.08.15.15.23C1090.66,373.08,1090.73,373,1090.81,372.92Zm-.3.76c.08.08.23.15.3.23a.28.28,0,0,0-.08-.23Zm2.81-3.8h-.76c0-.23.15-.46-.23-.53a5.29,5.29,0,0,1,.15-1,1.23,1.23,0,0,0-.46-.23.28.28,0,0,0-.08-.23c0,.08-.08.15-.15.23h-.23v-.84c.15,0,.46.15.46-.23h.3a.28.28,0,0,1-.08-.23l-.23.23a1.24,1.24,0,0,0-.46-.23v.46h-.3l-.08-.08.08.08v.46l-.68.23v.15h1v.46a.58.58,0,0,0-.3.08,2.24,2.24,0,0,0-.15.68h.46v-.76h.23a.68.68,0,0,0,.53.76c-.08.38-.53.61-.15,1a2.62,2.62,0,0,1,.46-.46C1092.94,370.11,1092.94,370.11,1093.32,369.88Zm-2.51,4c0,.08,0,.08-.08.08.08.08.15.15.23.15l.08-.08C1091,374.06,1090.89,374,1090.81,373.91Zm0-7c.08.08.15.08.23.15v-.23c.08-.08.15-.08.23-.15a.07.07,0,0,0-.08-.08c-.08.08-.08.15-.15.23S1090.89,366.92,1090.81,366.92Zm.08,2.66c.08-.08.15-.15.15-.23-.08.08-.15.08-.23.15A.07.07,0,0,0,1090.89,369.58Zm.15,3.95a.07.07,0,0,1-.08-.08c-.08.08-.15.15-.15.23S1091,373.61,1091,373.53Zm.23-4.94h.08l-.23-.23c0,.08,0,.08-.08.08C1091.11,368.52,1091.19,368.59,1091.27,368.59Zm-.15-3.57h.08v-.23h-.08Zm0,.76h.08v-.23h-.08Zm.15-1.29h.3v-.15h-.3Zm.76,9.34v-.08h-.68V374C1091.57,373.91,1091.8,373.91,1092,373.83Zm-.46-7.6a.07.07,0,0,1,.08.08l.23-.23a1.16,1.16,0,0,0,.53.23c-.15-.38-.3-.68-.53-1.14a3.12,3.12,0,0,1-.08.91V366Zm1.21,5-.08-.08c-.08.08-.08.15-.15.23-.3,0-.68.08-1,.08v.38h1v-.46C1092.63,371.4,1092.71,371.33,1092.79,371.25Zm-1.14-6.23h.08v-.23h-.08Zm.08,10.18h-.08v.3h.08Zm.08-6.61v-.46h.23C1092,368.29,1092.18,368.59,1091.8,368.59Zm.3-3.72c.08.08.08.15.23.23V365c-.08-.08-.08-.15-.15-.23Zm.15,7.29h-.08v.23h.08Zm0,1h-.08v.3h.08Zm0,1.06h-.08v.23h.08Zm.08-10.33c.08.08.15.15.23.15s.08.15.15.23l.08-.08c-.08-.08-.15-.15-.23-.15h.08l-.23-.23Zm.76,1.22h-.76C1092.63,365.33,1092.63,365.33,1093.09,365.1Zm-.53,2.2a3.7,3.7,0,0,0-.23.53h.46c0-.23.15-.46-.23-.53a.27.27,0,0,0-.15-.08A.27.27,0,0,1,1092.56,367.3Zm0-5.17c.08,0,.15.08.3.08l-.08.08c.08.08.15.15.15.23.08-.08.08-.08.15-.08a.4.4,0,0,0-.3-.15.07.07,0,0,0,.08-.08l-.15-.15C1092.63,362.06,1092.63,362.06,1092.56,362.14Zm.23,3.57v-.08h-.23v.08Zm.15,2.35c.08,0,.08,0,.15-.08-.08-.08-.15-.08-.3-.15C1092.86,367.91,1092.94,368,1092.94,368.06Zm.15,5.47h-.3v.08h.3Zm0-1.22a3.25,3.25,0,0,1-.08-.38h-.15v.46A.28.28,0,0,0,1093.09,372.32Zm-.08-7.52v-.23h-.08v.23Zm0,2.05v-.3h-.08v.3Zm-.08,2c.23.23.23.3.3.3s.08-.08.15-.08A1.24,1.24,0,0,0,1092.94,368.82Zm.15-6a.46.46,0,0,0,.23.46,1.5,1.5,0,0,0-.08-.53C1093.17,362.74,1093.17,362.82,1093.09,362.82Zm.08.91c.08-.08.15-.08.15-.23-.08.08-.15.15-.23.15A.07.07,0,0,0,1093.17,363.73Zm.15-1.67c0,.08,0,.15.08.15a.45.45,0,0,0,.46-.23C1093.7,362,1093.47,362.06,1093.32,362.06Zm.3,1.44v-.23h-.3v.23Zm.23,7.52c-.08,0-.15-.08-.3-.08a.07.07,0,0,1,.08-.08c-.08-.08-.15-.15-.15-.23-.08.08-.08.08-.15.08a.4.4,0,0,0,.3.15.07.07,0,0,0-.08.08c.08.08.15.08.15.15S1093.77,371.1,1093.85,371Zm-.23,1h-.3v.08h.3Zm-.23-3.65h.08v-.23h-.08Zm.08.68c.08,0,.08,0,.15-.08C1093.47,369,1093.32,368.9,1093.47,369Zm.3-2a.24.24,0,0,0,.15-.08,1.18,1.18,0,0,1-.46-.23C1093.62,367,1093.7,367.07,1093.77,367.07Zm-.15-5.47c.08.08.15.08.23.15-.08-.08-.08-.15-.15-.23Zm0,1.67c0,.08.08.08.15.15a.24.24,0,0,1-.15.08c.08.15.23.23.53.46a8.52,8.52,0,0,0-.15-1.52C1093.85,362.82,1093.7,363,1093.62,363.28Zm.23,1.22c0-.15-.08-.3-.08-.46-.08,0-.08.08-.15.08v.38Zm-.23.91c.08.08.15.15.23.15-.08-.08-.08-.15-.15-.23Zm.08-5.39h.08v-.3h-.08Zm.38,9.49c-.08-.08-.15-.08-.23-.15l-.08.08c.08,0,.15.08.23.15A.07.07,0,0,0,1094.08,369.5Zm-.23-11.24a3.3,3.3,0,0,0,.08.38h.15v-.38Zm.23,1.06h-.23v.08h.23Zm-.23,2.66a.28.28,0,0,0,.23-.08c-.08-.08-.15-.08-.23-.15Zm0,5.47c.08.08.08.08.08.15a.4.4,0,0,0,.15-.3C1094,367.38,1093.92,367.45,1093.85,367.45Zm.53,1h-.53v.08h.53ZM1094,367h.08C1093.92,366.92,1093.85,366.92,1094,367Zm.08-7.22v.08h.3v-.08Zm.3,5.47v-.08h-.3v.08Zm-.08.53h-.23a.28.28,0,0,1,.08.23C1094.23,365.94,1094.3,365.94,1094.3,365.78Zm-.23,1.52a.28.28,0,0,0,.23-.08c-.08,0-.08,0-.23-.08Zm.23-6.53v-.53h-.15v.53Zm.3,4.86c-.08,0-.08,0-.15-.08,0,.08-.08.15-.08.23h-.08l.08.08Zm-.23-8.05h.23v-.08h-.23Zm.08,1.67a.07.07,0,0,0-.08.08c.08.08.15.08.23.15C1094.53,359.4,1094.53,359.33,1094.46,359.25Zm-.08,2.58V362h.46c0-.08-.08-.15-.08-.23A3.29,3.29,0,0,1,1094.38,361.83Zm.15-3.42v-.23h-.08v.23Zm.3,1.06h-.23c0,.15.08.3.08.46h.15a2,2,0,0,1,.08-.53.07.07,0,0,1,.08.08v-.15a1.08,1.08,0,0,1,.15-.46,2.27,2.27,0,0,0-.3.23c0,.08.08.15.08.23S1094.91,359.4,1094.84,359.48Zm0,3.87h-.23v.08h.23Zm-.08-2.35v-.23h-.08V361Zm.08-3.11h.3v-.08h-.3Zm.3,4.48h-.3v.08h.3Zm-.23-6.23h.08v-.23h-.08Zm0,3.27v-.08h.08A.07.07,0,0,1,1094.91,359.4Zm0,2c0,.08,0,.08.08.08a.33.33,0,0,0,.08-.23C1095,361.3,1094.91,361.3,1094.91,361.38Zm.08,2.89h-.08v.3h.08Zm.15-5.85c0,.15.08.23.08.3.08.3.15.68.23,1h.08v-1.29Zm.46,2.73V361a.45.45,0,0,0-.46.23A1,1,0,0,0,1095.6,361.15Zm-.46.08v0Zm.46-4.18h-.23v.08h.23Zm.15-1.37h-.08v.23h.08Zm.08,1.44a.82.82,0,0,0,.23.38A1.67,1.67,0,0,1,1095.82,357.12Zm.08,1.75h.23v-.08h-.23Zm.46,1.75a.07.07,0,0,0-.08-.08c-.08,0-.15.08-.15.23v-.08l-.23.23a.07.07,0,0,1,.08.08c.08-.08.08-.15.15-.3v.08C1096.2,360.69,1096.28,360.62,1096.36,360.62Zm-.23-6.53h.23a1,1,0,0,0-.08-.46h-.15Zm0,4c.08,0,.08,0,.08.08.08-.08.08-.08.08-.15S1096.2,358,1096.13,358.11Zm.08,1.37v.23h.08v-.23Zm.38-2c-.15-.08-.38-.15-.23.23.08.08.15.08.23.15Zm.08-4.56h-.3V353h.3Zm-.23-.76c0,.08.08.15.23.15h-.08l.23.23.08-.08c-.08-.08-.15-.08-.3-.08a.07.07,0,0,1,.08-.08c-.08-.08-.15-.15-.15-.23Zm.68,6.68c-.08-.08-.15-.15-.23-.15v-.08c-.08,0-.08-.08-.15-.15a.07.07,0,0,0-.08.08.28.28,0,0,0,.23.08v.08c0,.08.08.15.15.23A.07.07,0,0,1,1097.12,358.87Zm0-8.2h-.23v.08h.23ZM1097,358v-.3H1097v.3Zm.23-4.33h-.08v.23h.08Zm.3-1.52h-.08v.23h.08Zm.3-1.37h.3v-.08h-.3Zm.08,1.75c0,.08,0,.08.08.08a.33.33,0,0,0,.08-.23C1098,352.41,1098,352.41,1098,352.49Zm.46,1.06c-.08-.08-.08-.08-.08-.15H1098v.23C1098.1,353.63,1098.25,353.55,1098.41,353.55Zm.23-1.29v-.15a.46.46,0,0,0-.46.23A1,1,0,0,0,1098.63,352.26Zm-.15-1.22h.08v-.23h-.08Z" transform="translate(-1063.14 -334.72)"/><path d="M1128.41,368.44c.08.38.38.84.23,1.14-.23.61-.08,1.44-.61,1.9-.46.3-.23.84-.61,1.14a3.76,3.76,0,0,1-.53,2.05c-.23.46,0,1.06-.46,1.44.23.61-.68.84-.53,1.44l-1.52,3.57a14.08,14.08,0,0,1-.84,1.44l-.3.84c-1,.61-1.29,2-2.13,3l-.46.61a6,6,0,0,0-1.59,2.05,1.66,1.66,0,0,1-.76.68c-.53.38-1.14.76-1.67,1.22a2.27,2.27,0,0,1-1.37.76,7.08,7.08,0,0,0-1.9.76c-1.44.23-3-.23-4.41-.23a7.9,7.9,0,0,1-2.58-.84,4.3,4.3,0,0,1-2.13-1.37,4.38,4.38,0,0,0-.84-.84,7.82,7.82,0,0,1-2.35-4.56c-.53-.46-.15-1.22-.38-1.82a4.29,4.29,0,0,1-.15-2,4.08,4.08,0,0,1,.23-.76c-.08-.46-.68-.91-.46-1.44s.15-.91.3-1.29l.15-.15c-.15-1.52.84-2.73.84-4.18,0-.3.23-.53.38-.84a5.25,5.25,0,0,0,.61-2.13,4.68,4.68,0,0,1,.53-1.75,2.43,2.43,0,0,0,.23-1.06,3.94,3.94,0,0,0,1.37-2.05,8.13,8.13,0,0,1,1.22-2.05,33,33,0,0,1,2.35-3.34,12.24,12.24,0,0,1,4.25-3.34,6.5,6.5,0,0,1,3.11-.76c.83.08,1.59,0,2.35,0,2,.91,4,1.52,4.79,3.72.46,1.14,1.37,2.2.84,3.72.15.46.38.91.53,1.44a2.59,2.59,0,0,1,0,2.13c-.46,1.14-.68,2.43-1.06,3.65a3,3,0,0,1-.61,1.06,12,12,0,0,0-1.14,1.82,22.57,22.57,0,0,1-3,2.51c-.38-.08-.61.23-.91.38a3,3,0,0,1-2.13.68.81.81,0,0,0-.46,0c-1.44.46-2.51,1.06-3.8.53a3,3,0,0,0-1.44.15l-1.06,1.6.3.38a6.55,6.55,0,0,0-.23,2.13,7.82,7.82,0,0,0,.3,2.28,3.51,3.51,0,0,0,.84,2.05,9.53,9.53,0,0,0,1.52,1.52,5.94,5.94,0,0,0,3.57-.76,3.61,3.61,0,0,0,.91-.53,29.19,29.19,0,0,0,4.48-4.71c.46-.61.38-1.44,1.06-2,.23-.23.3-.53.53-.76a4,4,0,0,0,1.22-2.2,7.52,7.52,0,0,1,.53-1.14,18.86,18.86,0,0,0,1.9-4,23.9,23.9,0,0,0,1.22-2.43c.08-.3.53-.61.76-.91A8,8,0,0,0,1128.41,368.44Zm-24.91,8.81h-.08v.3h.08Zm.38.91h-.3v.08h.3Zm0-1h.23v-.08h-.23Zm.08,3.42c0-.08.08-.15.15-.3-.08.08-.15.15-.23.15S1104,380.52,1104,380.59Zm.15-2.2v.08h.23v-.08Zm.08,1.9v-.15l.23-.46c-.23.23-.3.23-.3.3a.28.28,0,0,0,.08.23Zm0-6.84h.08v-.23h-.08Zm.08,7.9h-.08v.23h.08Zm.08-5.92h.3v-.08h-.3Zm0,7.06h.3v-.08h-.3Zm.23-3v-.68C1104.33,379.15,1104.33,379.15,1104.56,379.53Zm-.15-5.54h.08v-.23h-.08Zm.23,9.11h-.08c-.08.08-.15.08-.15.15s0,.08.08.08S1104.56,383.18,1104.64,383.1Zm.23-4.48c-.08,0-.08,0-.08-.08l-.23.23.08.08Zm-.23-6.3c.08.08.08.08.15.08a.26.26,0,0,0-.08-.15A.07.07,0,0,0,1104.64,372.32Zm0,2.05h.23v-.08h-.23Zm.46,2.66c-.15,0-.3.08-.46.08v.15A.46.46,0,0,0,1105.09,377Zm-.23-4.56c0,.08.08.15.15.23a.07.07,0,0,1,.08-.08C1105,372.54,1104.94,372.47,1104.87,372.47Zm.76,3.57-.76-.84.23,1.82h.3a2.06,2.06,0,0,1,0-.68C1105.4,376.19,1105.47,376.11,1105.63,376Zm-.53,1.75h.08l-.23-.23a.07.07,0,0,1-.08.08C1104.94,377.71,1105,377.78,1105.09,377.78Zm0,4.94-.08-.08c-.08.08-.15.15-.15.23S1105,382.8,1105.09,382.72Zm-.15-2.13v.23h.08v-.23Zm.15-10.79h.3v-.08h-.3Zm0,1.9.38,1.52c.23,0,.46-.08.84-.08l-.68-.3v-.53l.53-.23c-.08-.15-.08-.23-.23-.3l-.3.15Zm.23,7.75c.15-.08.23-.23.46-.46a3,3,0,0,1-.68.08C1105.09,379.23,1105.17,379.3,1105.32,379.46Zm.08.68h-.3v.08h.3Zm-.23-9v.23h.08v-.23Zm.23,2.51-.15-.15c-.08,0-.08,0-.08.08a1,1,0,0,0,.23.15Zm0,4.1h-.23c0,.08.08.15.23.23Zm.46-4h-.46l.15.23Zm-.23,10.33-.15-.15a.07.07,0,0,0-.08.08C1105.47,384,1105.55,384.09,1105.63,384.09Zm-.15-13.14h.08v-.3h-.08Zm.53,7.37c-.23-.15-.23-.3-.3-.23h-.15Zm0,1.52c-.23-.15-.23-.23-.3-.23h-.15Zm-.38-9.8.08.08c.08-.08.15-.08.15-.23C1105.78,370,1105.7,370,1105.63,370Zm.23,4.63v-.08h-.23v.08Zm0,.76v-.08h-.23v.08Zm0,.76c-.08-.08-.15-.15-.23-.15s.08.15.15.23A.07.07,0,0,1,1105.85,376.19Zm.23.91L1106,377l-.15.23h-.23v.3a.28.28,0,0,0,.23-.08v-.23c0,.08,0,.08.08.08S1106,377.18,1106.08,377.1Zm-.23,5.09h-.23v.08h.23Zm0,2.13c-.08-.08-.15-.15-.23-.15s.08.15.15.23A.07.07,0,0,1,1105.85,384.32Zm-.08-1.22v-.23h-.08v.23Zm.83-12.15-.38-.53c-.08.15-.23.23-.38.38l.53.46Zm-.76,1.6v.08h.3v-.08Zm0,1.22c.15,0,.3-.08.53-.08l-.23-.23Zm.23,3.95c-.08-.08-.15-.15-.23-.15l.15.23Zm-.15-7.75a1.29,1.29,0,0,1,.38.15l.3-.46C1106.31,369.73,1106,369.43,1105.93,370Zm.23,4.33v.15h.68v-.23C1106.61,374.21,1106.38,374.29,1106.16,374.29Zm0,1.37h.23v-.08h-.23Zm.08.38-.08.08c.08.08.15.15.23.15Zm.15.46c-.08.08-.15.15-.23.15a.07.07,0,0,0,.08.08Zm-.08-3.34a3.11,3.11,0,0,1,.68.38C1106.92,373.15,1106.76,372.7,1106.31,373.15Zm.15-1.67-.08.08V372c.23-.08.38-.08.23-.08A1.6,1.6,0,0,0,1106.46,371.48Zm.08,2.51a.07.07,0,0,1,.08-.08c-.08-.08-.15-.15-.23-.15S1106.46,373.91,1106.54,374Zm.3,2.58.23.15.08-.08c-.08,0-.15-.08-.23-.38h-.53v.23h.53A.07.07,0,0,0,1106.84,376.57Zm-.23-6.91h.08l.15-.15a.07.07,0,0,0-.08-.08Zm.23.46c-.08.08-.15.15-.15.23l.08.08C1106.76,370.34,1106.84,370.26,1106.84,370.11Zm0,.68c0-.08,0-.08-.08-.08a.33.33,0,0,0-.08.23Zm-.15,1.37v.3h.08v-.3Zm0,3.49a.07.07,0,0,0,.08.08c0-.08.08-.15.15-.23h-.08A.16.16,0,0,0,1106.69,375.66Zm.08,2.66h-.08v.23h.08Zm1-1.22c-.84,0-.84,0-1,.53C1107.07,377.4,1107.37,377.33,1107.75,377.1Zm-.84-8.28h.23v-.08h-.23Zm.23,1.22-.08-.08c-.08.08-.15.15-.15.23Zm-.15,3.72-.08.08.23.15C1107.14,373.91,1107.07,373.83,1107,373.76Zm-.08,1v.68C1107.14,375.2,1107.14,375.2,1106.92,374.75Zm.15-3.34v-.23H1107v.23Zm.08-3.65h.23v-.08h-.23Zm.23,2.73h-.23v.08h.23Zm-.15,2.2c.15,0,.23-.08.38-.08v-.15h-.46A.28.28,0,0,1,1107.22,372.7Zm.08,3.11c-.08.08-.15.08-.15.23.08-.08.15-.15.23-.15A.07.07,0,0,0,1107.3,375.81Zm.53-6.76a1.67,1.67,0,0,1-.61.23C1107.9,369.35,1107.9,369.35,1107.83,369Zm-.46-2.51h.3v-.08h-.3Zm0,4.71v.08h.3v-.08Zm.91,1.75a3.42,3.42,0,0,1-.91-.08,4.29,4.29,0,0,0,.08.53Zm-.91,2.43h.3v-.08h-.3Zm.15-6.76v-.3h-.08v.3Zm.08,3.27.23.23a.07.07,0,0,1,.08-.08l-.3-.15h.08c-.08-.08-.15-.15-.15-.23a.07.07,0,0,0-.08.08C1107.45,371.86,1107.45,371.86,1107.6,371.94Zm.3,2.73c-.08-.08-.15-.15-.23-.15h-.08l.23.23C1107.83,374.67,1107.83,374.67,1107.9,374.67Zm.53-6.46v-.84c-.3,0-.46-.53-.76-.15l.15.38-.15.15a.07.07,0,0,0,.08.08.28.28,0,0,0,.08-.23l.08.08v-.08Zm-.53-2.43h.23v-.08h-.23Zm.23,8h-.23c0,.15.08.3.08.46h.15Zm-.08-2.05v-.53H1108v.53Zm0,3.27H1108v.3h.08Zm.08-8.81v.08h.3v-.08Zm.3,3h-.3v.15h.3Zm0,3.34h-.3v.08h.3Zm.46-5.24v-.15a.45.45,0,0,0-.46.23C1108.59,367.38,1108.74,367.3,1108.89,367.3Zm-.46,1.52a.07.07,0,0,1,.08.08c.08-.08.15-.15.15-.23v-.08Zm.08,1.06a.83.83,0,0,0,.38-.08v-.08h-.46C1108.44,369.81,1108.44,369.88,1108.51,369.88Zm.15-5v.23c.15-.08.38-.08.53-.23v-.08A1.49,1.49,0,0,1,1108.66,364.87Zm.23,1.44v-.68C1108.66,365.94,1108.66,365.94,1108.89,366.31Zm0,2.28a.24.24,0,0,0-.08-.15c0,.08-.08.15-.08.23A.24.24,0,0,0,1108.89,368.59Zm-.08,2.05h-.08v.3h.08Zm.3-5.17c0-.08,0-.08-.08-.15,0,.08-.08.15-.15.23s0,.08.08.08S1109,365.48,1109.12,365.48Zm0,3.34c-.08-.08-.08-.15-.23-.15.08.08.15.15.15.23Zm-.15-4.41c.08.08.08.15.23.15-.08-.08-.15-.15-.15-.23A.07.07,0,0,0,1109,364.42Zm.15,4.71H1109v.3h.15Zm.08-4.56v.23a1,1,0,0,0,.46-.08v-.15Zm.23,3.34a.28.28,0,0,0-.23.08c.08,0,.15.08.23.08Zm1-2.58-.68-.15a.16.16,0,0,0,.15.15,1,1,0,0,1-.46.08c.23.38.68,0,.76.46h.23c.08.08.15.15.15.23a.07.07,0,0,0,.08-.08c-.08-.08-.08-.15-.23-.15Zm-1,1.6V367h.23v-.08Zm.23,1.37c-.08-.08-.15-.15-.23-.15s.08.15.15.23Zm0-4h.3v-.08h-.3Zm.23,3.19-.08-.08c0,.08-.08.15-.15.23l.08.08Zm.3-1.6c-.08,0-.15.08-.23.15l.08.08C1110.11,366,1110.18,365.94,1110.18,365.86Zm-.15-2.05h.08v-.23H1110Zm.23-.38.38-.53C1110.26,362.82,1110.26,362.82,1110.26,363.43Zm.15-1.75h.3v-.08h-.3Zm.08,3.72.15-.23a.07.07,0,0,0-.08-.08c0,.08-.08.15-.15.23A.07.07,0,0,1,1110.49,365.4Zm3,1.44a17.4,17.4,0,0,0-3,6.08c.08.38.23.68.3,1l.61.3a6.22,6.22,0,0,0,2.89-1.9,8.18,8.18,0,0,1,2.28-1.6,7.61,7.61,0,0,1,2-2.66,4,4,0,0,0,1-1.6c.15-.53.38-1,.53-1.44l.68-1.52c.15-.23.08-.46-.08-.76-.23-.61-.83-1-1.21-1.44-.38.46-.91.08-1.29.23C1117.4,361.91,1114.51,365.4,1113.45,366.85Zm-2.58-2.81-.38.15v.08h.38Zm-.08-1.75h.08v-.23h-.08Zm.08,2.51v-.23h-.08v.23Zm.08-2.13c.08.08.15.08.15.15l.91.46a1.12,1.12,0,0,1-.08-.46h-.76l.08-.08c-.08,0-.15-.08-.23-.15Zm.3-.91h.15v-.23h-.15Zm.23.46h.23v-.08h-.23Zm.38,2.58v-.23h-.08v.23Zm.15-3h.15v-.46H1112Zm.23.38a1.88,1.88,0,0,0,.08.61h.08v-.68C1112.31,362.06,1112.31,362.06,1112.23,362.14Zm.3-.61h.08v-.23h-.08Zm.23-.53h.15v-.23h-.15Zm.53.76h.08v-.23h-.08Zm.53.53h.08v-.23h-.08Zm.15-1.37h.23v-.08H1114Z" transform="translate(-1063.14 -334.72)"/><path d="M1148.09,337.37a4.64,4.64,0,0,1,.15,1.9,15,15,0,0,0-3.34,4.48c-.76,1.37-1.67,2.81-2.36,4.25-.46.91-.68,2-1.21,3-.3.68-.53,1.44-.84,2.28l.76.38c.84.15,1.9.23,3,.38l.53.23a2.84,2.84,0,0,1-.76,2.66,1.72,1.72,0,0,1-.84.61,4.33,4.33,0,0,0-1.21.84l-2.73-.38a13.74,13.74,0,0,1-1.37.76,7.5,7.5,0,0,1-1.29,3.42,4.84,4.84,0,0,0-.46,1.75l-.61.53a9.58,9.58,0,0,0-.3,2,6,6,0,0,1-.84,3.27,7.22,7.22,0,0,0-.68,2.51,10.4,10.4,0,0,1-.53,2.2,15.35,15.35,0,0,0-.68,2.51,10.6,10.6,0,0,0-.3,2.66,5.76,5.76,0,0,1-.23,1.59,10.84,10.84,0,0,0-.53,1.67l.23.84.3,1.67c.15.53.53.84,1.37,1.06h1a14.21,14.21,0,0,0,2.43-3.19l1.82-2.81a15.44,15.44,0,0,0,1.21-1.82c.23-.53.84-.76.91-1.37a3.55,3.55,0,0,1,.38-1.6,22.17,22.17,0,0,0,1.6-3,6.38,6.38,0,0,0,.46-1.06,1.83,1.83,0,0,1,.53-.91,11.61,11.61,0,0,0,1.29-2.05c.23-.46.38-1,1.06-1.14.3.53.76,1.06.15,1.75.08.38.38.61.08,1.22-.61,1.22-.91,2.58-1.52,3.8a2.49,2.49,0,0,0-.3,1.29,2.88,2.88,0,0,1-.38,1.14,21.7,21.7,0,0,0-1.6,3.27,15.83,15.83,0,0,1-1.6,3,34.2,34.2,0,0,0-2,3.27l-.3.61-3.19,3.42a3,3,0,0,1-1.44.84,10.35,10.35,0,0,0-1.9.84,3.16,3.16,0,0,1-2.05,0,4.49,4.49,0,0,1-1.06-.15l-1-.3-2.35-1.67v-.38c-.61-1.14-.83-2.43-1.67-3.49a1.48,1.48,0,0,1-.23-1.59,4,4,0,0,0,0-2.13c-.08-.38-.23-.61,0-1a1,1,0,0,0,.08-.84c-.15-1.14.3-2.2.3-3.34a1.81,1.81,0,0,1,.23-.91c.3-.3.23-.61.23-.91a7.54,7.54,0,0,1,1.06-3.27,11,11,0,0,1,.23-3.11c.08-1.06.84-1.75,1.29-2.81a4.5,4.5,0,0,1,.46-2.35,6.7,6.7,0,0,0,.53-2.2,2.43,2.43,0,0,1,.76-1.44c.08-.53-.15-1.06.3-1.6-.08-.23-.23-.46-.3-.76l-.15-.84h-1c-.76-.23-.91-1-1.37-1.44l1.37-1.37c.3,0,.68-.08.84.08.3.38.46-.15.68-.15a1.74,1.74,0,0,0,1.9-1.37,33.93,33.93,0,0,0,1.22-3.19,21.88,21.88,0,0,1,1.21-3.11c.38-.91.68-1.82,1.14-2.73a11.21,11.21,0,0,1,1.22-2.05c.46-.46.38-1.14.83-1.67a4.36,4.36,0,0,1,1.22-2.43c.61-.91,1.44-1.75,2.13-2.58a14.66,14.66,0,0,1,3.19.3c.84.3,1.75.53,2.66.84C1146.57,336.24,1147.17,336.69,1148.09,337.37Zm-21,42.46a.92.92,0,0,0-.23-.15v-.23a.24.24,0,0,1-.15.08c0,.08.08.08.15.15v.08c.08.08.15.15.15.23C1127,379.91,1127,379.91,1127,379.84Zm-.3.38h-.08v.3h.08Zm.3-.91a.07.07,0,0,0-.08-.08c0,.08-.08.15-.15.23h.08A.16.16,0,0,0,1127,379.3Zm.23-3.65h-.08v.23h.08Zm.68.84-.53-.38a1.29,1.29,0,0,0-.08.53h.53A.26.26,0,0,0,1128,376.49Zm-.38,4.86h-.23v.08h.23Zm-.08.91h-.08v.23h.08Zm.08-7.22h.3V375h-.3Zm.15-.46h.08v-.23h-.08Zm.61,2.43c-.08,0-.15-.08-.23-.15v.08l.15.23C1128.26,377.1,1128.34,377.1,1128.34,377Zm-.08.91h-.08v.23h.08Zm.08-6.46h.3v-.08h-.3Zm.3,7.82h-.3v.08h.3Zm0,2.28h-.3v.08h.3Zm-.08-4.94v-.23h-.08v.23Zm.53,1.22a2,2,0,0,0-.53.15C1129,378.16,1129.25,378.09,1129.1,377.86Zm-.46-7.9h.23v-.15h-.23Zm.23,15.57-.23.23a.07.07,0,0,1,.08.08A.39.39,0,0,0,1128.87,385.53Zm-.15-16.79h.08v-.23h-.08Zm0,1.75v.3h.08v-.3Zm.08,5.62v-.23h-.08v.23Zm0,6.38v-.23h-.08v.23Zm.38-.68h-.3V382h.3Zm-.23,2h.15v-.46h-.23C1128.87,383.48,1128.95,383.63,1128.95,383.79Zm0-12.53h.08V371h-.08ZM1129,381v-.23h-.08V381Zm-.08,4.63c0-.08.08-.08.15-.15s0-.08-.08-.08A.28.28,0,0,0,1128.95,385.61Zm.3-17.39h.08V368h-.08Zm.08,6.68h-.08v.23h.08Zm.53-5.17c-.15,0-.3.08-.46.08V370A.45.45,0,0,0,1129.86,369.73Zm.08-3.34-.15-.15c-.08,0-.08,0-.08.08A.33.33,0,0,0,1129.93,366.39Zm-.15,2.35v-.23h-.08v.23Zm0,4.56h-.08v.3h.08Zm0,1.06h-.08v.23h.08Zm0,.53h-.08v.23h.08Zm0,10.18h-.08v.23h.08Zm.15-18.69.15.3c0-.08,0-.08.08-.08a.4.4,0,0,0-.3-.15A.07.07,0,0,0,1129.93,366.39Zm0-1.06h.23v-.08h-.23Zm.23,2.13a.28.28,0,0,1-.23.08l.23.23a1,1,0,0,0,.08.46h.15a.63.63,0,0,0-.23-.53Zm-.08,2.05a.4.4,0,0,0-.15.3l.23-.23C1130.08,369.58,1130.08,369.58,1130.08,369.5Zm.08,1.14h-.23v.08h.23Zm-.08,1.67H1130v.23h.08Zm.08-6.46c.08,0,.08,0,.08.08l.15-.3Zm.23,1.44-.08-.08c-.08.08-.15.15-.15.23S1130.31,367.38,1130.39,367.3Zm0,1.75h-.23v.08h.23Zm-.08,5.54h-.08v.3h.08Zm0,.76h-.08v.3h.08Zm.08-10.86a5.87,5.87,0,0,0,.08.68.42.42,0,0,0,.38-.23Zm.08,1.22a1,1,0,0,1,.46-.08v-.23C1130.69,365.48,1130.54,365.48,1130.46,365.71Zm.46,3.87h-.23v.08h.23Zm-.15-2.66v.3h.08v-.3Zm.38-2.51a.07.07,0,0,0,.08-.08l-.23-.15-.08.08c.08,0,.15.08.23.15v.23c.08,0,.15-.08.23-.08Zm-.23,4.41a.39.39,0,0,0,.3.15l-.23-.23C1131,368.82,1131,368.82,1130.92,368.82Zm.08-11.09h.08v-.23H1131Zm0,4.1h.08v-.23H1131Zm.15-3.11h.3v-.15h-.3Zm0,10.33a.16.16,0,0,1,.15.15c.08,0,.08,0,.08-.08S1131.3,369,1131.15,369Zm.38.46h-.38c0,.23.08.38.08.53Zm.38-5.47V364h-.46c0,.08,0,.08.08.15A.82.82,0,0,0,1131.91,364Zm-.23,4.56h-.23v.08h.23Zm-.08-3.42v-.3h-.08v.3Zm0-5a6.29,6.29,0,0,1,.15,1c.23-.23.3-.38.46-.46Zm.08-1.37a2.37,2.37,0,0,0,.08.76,1.34,1.34,0,0,0,.46-.08l-.3-.3.68-.38Zm.53,4a1.49,1.49,0,0,1-.53.08,4.05,4.05,0,0,0,.08.91Zm-.46-3v.3h.08v-.3Zm.08,1.82v-.3h-.08v.3Zm0,.46v-.23h-.08v.23Zm-.08.3v.23h.08v-.23Zm.08,2.05h-.08v.23h.08Zm.08-9.57h.3v-.08h-.3Zm.08,2.66v.23h.15v-.23Zm.15,7.37a.16.16,0,0,1-.15.15c0,.08,0,.08.08.08S1132.13,365,1132.13,364.87Zm0,2.81H1132v.3h.15Zm.53-7.9c0-.15,0-.3-.38-.23,0,.08-.08.08-.15.15A1.49,1.49,0,0,0,1132.67,359.78Zm-.23.38h-.23v.08h.23Zm0,1.75h-.23V362h.23Zm0,2.81c-.08,0-.08,0-.08-.08a.4.4,0,0,0-.15.3Zm0-9.57h.23V355h-.23Zm.23,2.35h.08l-.23-.23a.07.07,0,0,1-.08.08Zm-.15-2.81h.08v-.23h-.08Zm.08,1.29v-.3h-.08v.3Zm-.08,2.28v.23h.08v-.23Zm.08,4.1h-.08v.23h.08Zm0-1.82a1.31,1.31,0,0,1,.23.3.28.28,0,0,1,.23-.08Zm.15-3.72c.08.08.15.15.23.15l-.15-.23Zm.23,4.71c-.08,0-.08-.08-.15-.15s-.08,0-.08.08A.28.28,0,0,0,1133,361.53Zm-.08-2.73h-.08V359h.08Zm.3,3-.23-.15v0h-.08l.23.23C1133.12,361.76,1133.12,361.76,1133.2,361.76Zm-.23-7.22c.08.08.15.15.23.15s-.08-.15-.15-.23Zm0,.76v.08h.46v-.15A1,1,0,0,0,1133,355.3Zm.23.91c-.08,0-.15.08-.23.08.08.08.15.15.23.15s.08.15.08.23c.08-.08.15-.15.15-.23h-.23Zm.23,1.52c.38,0,.23-.3.3-.46h-.3c0-.38-.23-.3-.46-.23,0,.3.3.15.46.23Zm0,.3v-.3H1133C1133,358.11,1133.2,358,1133.43,358Zm-.23,1.75c0-.08-.08-.15-.15-.23l-.08.08C1133,359.71,1133.12,359.78,1133.2,359.78Zm0-5.09.15.23.08-.08C1133.35,354.77,1133.27,354.69,1133.2,354.69Zm.23,1.52a1,1,0,0,0-.08-.46h-.15v.46h.23v.23a1.57,1.57,0,0,1,.46.3V356Zm-.23,3.65c.08.08.08.15.15.15a.07.07,0,0,0,.08-.08A.28.28,0,0,0,1133.2,359.86Zm.23,3.49h.08l-.23-.23c0,.08,0,.08-.08.08C1133.27,363.28,1133.35,363.35,1133.43,363.35Zm.91-4.63c-.46-.15-.23-.76-.91-.68h.08v.68Zm-.61,1.67h-.3v.08h.3Zm0,.84a.4.4,0,0,0-.3-.15c.08.08.15.15.15.23S1133.65,361.23,1133.73,361.23Zm0,2.28c-.08-.08-.15-.08-.3-.08a.16.16,0,0,1,.15.15C1133.65,363.58,1133.65,363.58,1133.73,363.5Zm-.08-4.18a.24.24,0,0,1-.15.08c0,.08,0,.08.08.15C1133.65,359.48,1133.65,359.48,1133.65,359.33Zm-.08-5.92h.08v-.23h-.08Zm0,.53h.08v-.3h-.08Zm.38,5.17a.07.07,0,0,1-.08-.08c-.08.08-.15.15-.15.23l-.08.08h.08Zm1.37-8c.08-.08.15-.15.15-.23v-.08a1.09,1.09,0,0,0,.46-.15,2.47,2.47,0,0,1,.53.46c-.08,0-.08.08-.15.15a.07.07,0,0,0,.08.08c0-.08.08-.15.15-.23h.23v.38l-.68.3c-.3-.23-.53-.38-.61.15l.53.46h-.53v.46h.46c0,.3.07.53.07.76-.53.08-.68-.15-.76-.46a1.3,1.3,0,0,0-.53.08l.3.38a3.36,3.36,0,0,1-.76-.15l-.3.3.3.38a.28.28,0,0,1-.23.08l.23.23c-.08.15,0,.46-.23.46l-.23-.23a.07.07,0,0,1-.08.08c.08.08.15.15.23.15.08.15.15.3.23.3.38-.08.3.23.3.46h.23a.59.59,0,0,0,.3.3c.08.3.23.61.76.46l-.53-.76.15-.68-.15-.3a2.34,2.34,0,0,1,.76.08l-.23.3a2,2,0,0,0,.46.38c-.08.3-.46.61-.15,1,.23,0,.53.23.61-.23-.38-.15-.07-.53-.15-.76h-.3l.3-.23v.23l.23-.23a4.67,4.67,0,0,1,1.06-.08c-.23-.38-.76.08-.84-.46h-.46v-.23c.15,0,.46-.15.46.23h.53l-.23-.46.46-.15c0-.08,0-.15-.08-.15a5.26,5.26,0,0,0-1,.15l.61-1.22c-.23,0-.53.15-.53-.23h-.23l-.23.23a.28.28,0,0,0-.08-.23l-.23-.23h.23v.23h.3l-.3-.23.38-.53a6.94,6.94,0,0,0,1.21-.08l-.15-.46-.3.23-.23-.46h-.38v-.68h-1.52l.23.38c-.08.08-.15.15-.23.15S1135.32,351,1135.32,351.12Zm-1.59,1.14c.08,0,.15.08.23.15a.07.07,0,0,1,.08-.08l-.23-.15A.07.07,0,0,0,1133.73,352.26Zm0,5c.46,0,.84,0,1-.53l-.23-.3Zm.46-4.41c-.08.08-.15.15-.23.15.08.08.08.08.15.08a1,1,0,0,0,.15-.23Zm.08,2.81c-.08-.08-.15-.15-.15-.23-.08.08-.08.08-.15.08A.39.39,0,0,0,1134.26,355.68Zm-.15,1.82c-.08.08-.08.08-.15.08a.39.39,0,0,0,.3.15C1134.19,357.66,1134.11,357.58,1134.11,357.5Zm.15,2.89h-.3v.08h.3Zm0-7.75v.23a1,1,0,0,0,.46-.08v-.15Zm.46,2.05c.08.08.23.15.23.3a2.1,2.1,0,0,1,.08.68h.23l-.23.3v-.3h-.3v-1l-.46-.23v-.3h.46Zm-.23,1a.28.28,0,0,0-.23.08c0,.08,0,.08.08.15C1134.34,355.83,1134.41,355.76,1134.49,355.68Zm-.23,2.13a.24.24,0,0,0,.08.15c0-.08.08-.15.15-.23A.28.28,0,0,0,1134.26,357.81Zm.23-6.53a.07.07,0,0,1,.08.08c.07-.08.15-.15.15-.23S1134.57,351.2,1134.49,351.27Zm0,1,.08.08c.07-.08.15-.08.15-.23C1134.64,352.19,1134.57,352.26,1134.49,352.26Zm.15,4c-.07.08-.07.15-.15.15h.23A.27.27,0,0,1,1134.64,356.29Zm.38,1.22c-.23,0-.53-.15-.53.23C1134.64,357.73,1134.95,357.88,1135,357.5Zm0-5.39.15-.46h-.46a1,1,0,0,0,.08.46h.15v.08l.23.15.08-.08C1135.17,352.26,1135.1,352.19,1135,352.11Zm-.3,4.63h.3a.59.59,0,0,1-.3-.3Zm.76,2.43c-.08-.15-.23-.23-.38-.38l-.38.38c.15.15.3.23.38.38Zm-.68-8.05c0-.08.08-.08.15-.15a.07.07,0,0,0-.08-.08A.28.28,0,0,0,1134.79,351.12Zm.46,3v.08c-.08,0-.08.08-.15.15a.07.07,0,0,1-.08-.08Zm-.15-4.86h.08v-.23h-.08Zm.38,4.79c-.08,0-.15.08-.23.08v-.23Zm-.23,3.19h.53a1.48,1.48,0,0,1-.08-.53l-.46.23Zm.3-8h.15v-.23h-.15Zm.68,8.89V358h-.46V358c-.08-.08-.15-.08-.15-.15s-.08,0-.08.08a.93.93,0,0,0,.23.15v.23C1135.93,358.26,1136.08,358.19,1136.24,358.19Zm-.53.08a.16.16,0,0,0-.15.15.07.07,0,0,0,.08.08c0-.08.08-.15.15-.23Zm.76-3.87h-.68c0-.15-.08-.3,0-.38l.68-.3Zm-.46-5.24a3.26,3.26,0,0,0,.08.38h.15v-.38Zm0,.76v.15h.53v-.15Zm.23,7.44H1136v.08h.23Zm.3-4h-.3v-.08h.3Zm-.23,1.44c.08,0,.15-.08.23-.08v.23C1136.46,354.92,1136.39,354.85,1136.31,354.77Zm.23,2.2c-.08-.08-.15-.15-.15-.23l-.08.08C1136.31,356.9,1136.39,356.9,1136.54,357Zm.23.53a.42.42,0,0,0-.3-.46l.15.46Zm-.23-2.58.23.3h-.23Zm.08-6.84h.07v-.3h-.07Zm.15-.68.08.08a.16.16,0,0,0,.15-.15h.08l-.08-.08C1136.92,347.33,1136.84,347.4,1136.77,347.4Zm0,1.22v.15c.23,0,.38,0,.53-.23C1137.07,348.54,1136.92,348.62,1136.77,348.62Zm.46.68v-.23c-.15,0-.3.08-.46.08,0,.08.08.08.08.15Zm.08,3.34v-.23c-.23,0-.53-.15-.53.23h.53v.23h.46v-.68c-.15,0-.23-.08-.3-.08l-.15.3a.16.16,0,0,1,.15.15A.27.27,0,0,1,1137.3,352.64Zm0,3.49c0-.08-.08-.08-.08-.15a.46.46,0,0,0-.46.23A1.49,1.49,0,0,0,1137.3,356.14Zm0-8.35-.3.23a.78.78,0,0,1,.3.53c.07,0,.15,0,.15-.08s-.08-.08-.15-.15Zm-.23-2.81h.15v-.23h-.15Zm0,.3v.23c.15,0,.3-.08.46-.08,0-.08,0-.08-.08-.15Zm0,2.05a.83.83,0,0,1,.38-.08v-.84A8.23,8.23,0,0,0,1137.07,347.33Zm.15,2.51h-.15c0,.23,0,.38.23.53C1137.3,350.21,1137.22,350,1137.22,349.83Zm0,.76c0,.08-.08.08-.15.15a.07.07,0,0,0,.08.08l.15-.23Zm0,5.85h-.15v.3h.15Zm.3-8.66c0-.08-.08-.15-.08-.23-.08.08-.15.15-.15.23Zm-.23,2.66v.15a.09.09,0,1,0,0-.15Zm.15-4.41a2.77,2.77,0,0,0,.61.68,2.1,2.1,0,0,0-.08-.68Zm1.06,2.43c-.08-.08-.15-.15-.23-.15,0-.38-.3-.23-.53-.23v-.3h-.23l.23.3c.08.3.3.23.53.23l.15.23Zm-.76.61c-.08,0-.15.08-.23.15a.07.07,0,0,1,.08.08C1137.68,349.22,1137.76,349.15,1137.76,349.07Zm.23,1.75-.46.15.08.08h.38Zm-.3,4.63h-.08v.23h.08Zm.61-7.9c-.15,0-.46-.15-.53.23C1138,347.78,1138.29,347.93,1138.29,347.55Zm-.46-4v.15a.45.45,0,0,0,.46-.23C1138.13,343.45,1138,343.53,1137.83,343.53Zm.15,5.39a.07.07,0,0,0-.08-.08c0,.08-.08.15-.08.23A.16.16,0,0,0,1138,348.92Zm.08,4.71-.15-.23c-.08.08-.08.08-.08.15A.59.59,0,0,1,1138.06,353.63Zm-.08-9.42V344h-.08v.23Zm-.08,1.06v.23h.08v-.23Zm.15,1.52H1138l.23.23c0-.08,0-.08.08-.08C1138.21,346.87,1138.13,346.79,1138.06,346.79Zm0-3.72c.07,0,.15.08.23.15v-.08c0-.08-.08-.08-.15-.15A.07.07,0,0,0,1138.06,343.07Zm0,3c.07-.08.15-.15.23-.15l-.08-.08C1138.13,345.81,1138.06,345.88,1138.06,346Zm.07,7.75h-.07C1138.13,353.86,1138.29,353.86,1138.13,353.78Zm.08-8.81v-.23h-.08V345Zm0,5.39v-.53h-.08v.53Zm-.08,1.29v.23h.08v-.23Zm.53,2.28c-.15-.15-.23-.23-.3-.23h-.15Zm-.38-10.48c.08,0,.15-.08.23-.08l-.23-.15Zm0,7.6h.23V351h-.23Zm.08-2.2v.23h.08v-.23Zm0,3.8a.28.28,0,0,1,.23-.08c-.08-.15-.08-.3-.15-.38h-.08Zm.68-7.14c.08,0,.15-.08.3-.15a5.74,5.74,0,0,1-.08-1.14c-.23,0-.3.08-.46.08l.23.38-.53.15.53.3Zm-.15,1.44a.07.07,0,0,0-.08.08l-.3.23h.3A1.2,1.2,0,0,1,1138.89,346.95ZM1140,346h-.23c-.08-.53-.53-.15-.76-.3v-.23l-.46-.23v.46h.46c.15.53.53.15.76.3.08.08.08.08.08.15A.16.16,0,0,0,1140,346Zm-1.29,5.62c-.08,0-.08.08-.15.15l.08.08C1138.67,351.81,1138.74,351.73,1138.74,351.65Zm-.08-7.67h.08v-.3h-.08Zm0,5.62v.23h.08v-.23Zm.08,3.27h-.08v.3h.08Zm.07-12.15c.08.08.15.15.23.15v.08a.07.07,0,0,1,.08-.08l-.23-.23A.07.07,0,0,1,1138.82,340.72Zm.08,6.15V347s.08-.15,0-.15l.23-.46a2.23,2.23,0,0,0-.3.23A.28.28,0,0,0,1138.89,346.87Zm0,.91h.15a.45.45,0,0,0-.23-.46A1,1,0,0,0,1138.89,347.78Zm-.08,1h.53v-.15h-.53Zm.08-7.14v.3h.08v-.3Zm.46,10.41a2.93,2.93,0,0,1-.08-.68.42.42,0,0,0-.38.23C1139,351.73,1139.12,351.81,1139.35,352Zm-.3-11.09c.08.08.08.15.15.15a.07.07,0,0,0,.08-.08C1139.2,341,1139.12,340.94,1139,340.94Zm0,2.58a1.54,1.54,0,0,0,.08.38,1.8,1.8,0,0,0,.68-.46A2.58,2.58,0,0,0,1139,343.53Zm.15-.84v-.23h-.08v.23Zm.61.53v.23h.3c-.15-.08-.23-.15-.23-.23a1.33,1.33,0,0,1-.08-.38,1.4,1.4,0,0,1-.53.15.26.26,0,0,0,.08.15C1139.5,343.15,1139.65,343.22,1139.81,343.22Zm.3-2.05-.15-.23c0,.08-.08.15-.23.15l-.38.68a4.09,4.09,0,0,0,.38.61l.23-.23a5.21,5.21,0,0,1-.15-1Zm-.61,6.61h-.07v.3h.07Zm.53-2.58a1.08,1.08,0,0,0-.23-.76v-.23c-.08,0-.15.08-.23.08l.23.15v.08c0,.23.08.46.08.68Zm-.3,1.82h-.08v.23h.08Zm.84-2.89V344a1,1,0,0,0-.76.23A2.34,2.34,0,0,0,1140.57,344.13Zm-.46-3c0,.15-.15.46.23.46C1140.26,341.48,1140.49,341.17,1140.11,341.17Zm.23,1.22-.23.23a.07.07,0,0,1,.07.08Zm-.23,1.06a.28.28,0,0,0,.07.23c0-.08,0-.08.08-.23Zm.23,2.43-.08-.08c-.08,0-.15.08-.15.23C1140.19,346,1140.26,345.88,1140.34,345.88Zm-.15-5.24h.08v-.23h-.08Zm.68,1.44a1.78,1.78,0,0,0-.15-.61.58.58,0,0,1-.38.15Zm-.3.23c0-.08-.08-.08-.08-.15-.08.08-.15.15-.15.23v.08C1140.41,342.39,1140.49,342.31,1140.57,342.31Zm.08.53a2.23,2.23,0,0,0-.3.23.28.28,0,0,0,.08.23C1140.49,343.15,1140.49,343,1140.64,342.84Zm-.23-3h.08v-.23h-.08Zm0,.3.84.61.15-.61Zm0,3.19v.08C1140.49,343.3,1140.49,343.22,1140.41,343.38Zm.46,2.13h-.07a.16.16,0,0,0-.15.15.07.07,0,0,0,.08.08C1140.72,345.65,1140.79,345.65,1140.87,345.5Zm-.07-4.25.23.23c0-.23.08-.38.08-.61C1140.87,340.94,1140.79,340.94,1140.79,341.25Zm.3,2.43c0-.08-.08-.15-.15-.23a.07.07,0,0,1-.08.08C1140.95,343.6,1141,343.68,1141.1,343.68Zm0,1.22-.23.23a.28.28,0,0,0,.08.23C1140.95,345.2,1141,345.12,1141.1,344.89Zm-.15-5.54h.08v-.23h-.08Zm0,6.08v.08C1141,345.35,1141,345.27,1140.95,345.43Zm.15-6.68h.23v-.08h-.23Zm.53,3.57a4.29,4.29,0,0,0-.53-.91,1.49,1.49,0,0,0,.08.68l.3.38C1141.55,342.39,1141.55,342.31,1141.63,342.31Zm-.3,1.52c-.08,0-.15-.08-.23-.08s.08.08.15.15A.07.07,0,0,0,1141.33,343.83Zm-.08-.61v-.3h-.08v.3Zm.08-2.28v.15h.3v-.15Zm.46.46h-.08v.23h.08Zm.23-2.05h-.08v.3h.08Zm.61,1.75c0-.08,0-.15-.08-.15h-.38v.23A1,1,0,0,1,1142.62,341.1Zm-.3.53h-.15v.3h.15Zm.15-1.75h.08v-.23h-.08Zm.3.53h-.08v.23h.08Zm.3-.53H1143v.23h.08Zm.46.23h-.08v.3h.08Z" transform="translate(-1063.14 -334.72)"/><path d="M1163.05,367.61c.46,1.14-.23,2-.46,3a7.9,7.9,0,0,1-.61,1.9,16.59,16.59,0,0,0-.68,1.75,19.33,19.33,0,0,1-1.67,4.1,7.1,7.1,0,0,0-.76,2.13,24.87,24.87,0,0,1-2.36,4.1c-.3.53-.68,1.06-1,1.67a9.06,9.06,0,0,1-1.44,2.05l-2.05,2.28a3.32,3.32,0,0,1-2.51,1.22l-.76.23a6.71,6.71,0,0,0-1.06-.23,5.92,5.92,0,0,1-4.86-3.11c-.53-.91-.53-2-1.22-2.81v-.23a22,22,0,0,1-.23-4.48l.23-2.81c0-.15.15-.23.23-.38,0-.61.3-1.06.3-1.67a6.79,6.79,0,0,1,.76-3l.91-3.49c-.61-.53.08-1.14.23-1.67a24.34,24.34,0,0,1,.91-2.51,5.72,5.72,0,0,0,.3-1.06,7.65,7.65,0,0,1,1.52-3,3.08,3.08,0,0,0,.61-1.44c.23-1.29,1.14-2.2,1.82-3.27.3-.46.91-.23,1.14-.61.76-.15,1.52-.23,2.2-.3.91.61,1.75,1.22,2.81,1l2,1.67a4.16,4.16,0,0,1-.76,2c-.68,1.29-1.44,2.58-2.05,3.95-.38.91-1.06,1.82-1,2.89,0,.08-.08.15-.15.23-.68.61-.68,1.52-.83,2.43-.15.53-.68.91-.53,1.52a4.34,4.34,0,0,0-.76,2.35,3.16,3.16,0,0,1-.3.53l-.91,2.43c-.08.15-.15.38-.08.46.46.46.15,1.06.3,1.6-.76.46-.61,1.22-.84,1.9-.08.53.08,1.06,0,1.52a3.81,3.81,0,0,1-.15,1.6,9.48,9.48,0,0,0-.15,1.6l1.21.91A2.47,2.47,0,0,0,1152,385a24,24,0,0,0,2.81-3.57,10.38,10.38,0,0,0,1.67-3.87c.15-.38.23-.84.53-1.06A6.19,6.19,0,0,0,1158,375a39.39,39.39,0,0,1,2-3.42,14.85,14.85,0,0,1,2-3.34l.68-1Zm-18.61,11.47h.15v-.3h-.15Zm.38,4.48v-.15a.57.57,0,0,0-.38.08v.08Zm-.08-5.54h.08v-.23h-.08Zm.38-.84L1145,377c0,.08,0,.08-.08.08C1145,377.18,1145,377.18,1145.12,377.18Zm-.08.3h.61c0-.15,0-.23-.38-.23Zm.61,4.56c0-.08,0-.08-.08-.15h-.38v.23C1145.35,382.11,1145.5,382,1145.66,382Zm-.3.84h-.15v.23h.15Zm.08-6.23h.23v-.08h-.23Zm.08,2.43v.23h.08v-.23Zm.38,3.34h-.23v.08h.23Zm0,.53h-.23V383h.23Zm.08-6h.23a.83.83,0,0,1-.08-.38H1146Zm.15,3.34H1146v.3h.08Zm.08-7c.08.08.15.15.23.15s-.07-.15-.15-.23Zm.23,8.66h-.23V382h.23Zm0-11.09h.23v-.15h-.23Zm0,1.37c0,.15.08.3.08.46h.15v-.46Zm0,1.22.15.23.08-.08Zm.23,4.41h-.23v.08h.23Zm0,.53h-.23v.08h.23Zm-.15-2.13v.23h.08v-.23Zm.46.84h-.3v.08h.3Zm0-2.89-.15-.23a.07.07,0,0,0-.08.08C1146.79,374.14,1146.87,374.21,1146.95,374.21Zm-.15-2.51h.08v-.3h-.08Zm0,1.52h.08v-.3h-.08Zm.08,9.87h-.08v.3h.08Zm0,1.06h-.08v.23h.08Zm0,1.22h-.08v.3h.08Zm.3-11-.3-.15.23.23A.07.07,0,0,1,1147.17,374.37Zm-.07.91H1147v.23h.08Zm.07-6.46h.23v-.08h-.23Zm0,.76h.23v-.08h-.23Zm0,.76h.23v-.08h-.23Zm0,3.27h.23v-.08h-.23Zm.23,1.37V375l.08-.08-.23-.23a.07.07,0,0,1-.08.08C1147.25,374.9,1147.25,375,1147.4,375Zm1-7.37a4.26,4.26,0,0,0,.08-.53c-.38-.15-.61-.38-1-.15Zm-.76,7.52c0-.08-.08-.08-.15-.08a.27.27,0,0,0,.08.15C1147.63,375.2,1147.63,375.2,1147.63,375.13Zm0-7.29v-.23h-.08v.23Zm-.08,4.1v.23h.08v-.23Zm.61-2.66a.07.07,0,0,0-.08-.08c-.08,0-.08.08-.15.15l-.23.23a.07.07,0,0,1,.08.08l.15-.23C1148,369.35,1148.09,369.28,1148.16,369.28Zm-.3,3.65h-.07v.3h.07Zm.15-6.61h.08v-.23H1148Zm.15,1.75h.3V368h-.3Zm.23,2.89-.15.15.08.08C1148.39,371.1,1148.39,371.1,1148.39,370.95Zm0,2.28h-.08v.23h.08Zm0-2.28h.08c.07-.08.15-.15.23-.15a.07.07,0,0,0-.08-.08c-.08.08-.15.08-.15.23v-.08Zm.23-4c-.08,0-.08.08-.15.15h.23A.26.26,0,0,1,1148.62,366.92Zm.08,1.6v-.08h-.23v.08Zm0,1.29a3.3,3.3,0,0,1-.08-.38h-.15v.46C1148.54,369.88,1148.62,369.81,1148.69,369.81Zm0,1.67h-.23v.15h.23Zm-.15-2.58v.23h.08v-.23Zm.15-5.7h.3v-.08h-.3Zm.15,2.13c-.08.08-.08.08-.15.08a.4.4,0,0,0,.3.15C1148.92,365.48,1148.85,365.4,1148.85,365.33Zm.15,3,.08.08.15-.23h.53a4.08,4.08,0,0,1,.08-.84v.08a.27.27,0,0,1,.07-.15c0-.15.08-.3.08-.46l-.23.23a.28.28,0,0,0,.08.23c-.08.08-.08.08-.08.15h-.53c0-.38-.3-.23-.53-.3,0,.38.3.23.53.3v.68Zm-.15-3.19v-.3h-.08v.3Zm.15,1.6v.15h.46c0-.08-.08-.15-.08-.23A.82.82,0,0,0,1149,366.69Zm.15,2.73h-.08v.23h.08Zm.07-3.57a.26.26,0,0,0,.08.15c.08,0,.08-.08.15-.15Zm.08-2.28h.08v-.3h-.08Zm0,1.75h.08v-.23h-.08Zm.3,4.56h-.08v.3h.08Zm.15-5.77c.08.08.15.15.23.15v-.15l.46-.15v-.15a.66.66,0,0,0-.46.23A.28.28,0,0,1,1149.76,364.11Zm0,1.52.23-.23c-.08,0-.08,0-.08-.08-.07.08-.15.15-.15.23Zm.08.68v.3h.07v-.3Zm.15-4,.38.76.38-.76Zm0,2.05c0,.08.08.15.15.23a.07.07,0,0,1,.08-.08C1150.14,364.42,1150.06,364.34,1150,364.34Zm.08,1.75c.15,0,.23-.08.38-.08v-.15H1150A.28.28,0,0,1,1150.06,366.09Zm.08,2.28h-.08v.3h.08Zm.15-6.3h.08v-.3h-.08Zm.38,1.44v-.23a.82.82,0,0,1-.38.08v.15Zm-.15,3.57-.15-.68h-.08v.68Zm-.15.3h-.08v.23h.08Zm.38-5.92h.23v-.08h-.23Zm.3,1.6-.23-.23a.07.07,0,0,1-.08.08l.23.15a2.34,2.34,0,0,0,.15.61c.23-.23.46-.3.76-.61Zm0-1v.23c.15,0,.3-.08.46-.08-.08-.08-.08-.08-.08-.15Zm.08,2.28V364H1151v.3Zm.61.38v-.08H1151v.23Zm-.3,1.14h-.08v.23h.08Zm.3-4.71h.3v-.08h-.3ZM1152,364h-.15v.3h.15Zm2.81-18.31a9.85,9.85,0,0,1,1.22-4.86l1.37-3a10.17,10.17,0,0,1,1.37-2.13,2.56,2.56,0,0,1,1.37-.68c.91,0,1.82-.3,2.73.23.23.15.53,0,.84.08a3.32,3.32,0,0,1,2.05,1.37v.15c.3,1,.23,1-.23,2.13a29.33,29.33,0,0,1-2.73,4.71c-.61.91-1,2-1.6,2.89a14.65,14.65,0,0,1-.84,1.52,4.39,4.39,0,0,1-.91.76.92.92,0,0,1-1.14-.08c-.38-.23-.83,0-1.29-.23a5.25,5.25,0,0,1-1.9-1.44Z" transform="translate(-1063.14 -334.72)"/><path d="M1177.63,361.23c.07,1.52-.84,2.81-.76,4.33a6.51,6.51,0,0,0-.53,3.42c-.46.68-.23,1.44-.23,2.2,0,.53-.38,1.06-.3,1.67a6.7,6.7,0,0,1,0,1.75c0,.15-.15.3-.23.46a2.16,2.16,0,0,1,.23,1.9c-.3.53,0,1.21-.38,1.67.38.53-.15,1.06-.15,1.6a3.88,3.88,0,0,1-.46,2.05,4.85,4.85,0,0,0-.46,2.89c-.3.38-.53.53-.61.91a6.92,6.92,0,0,1-1.67,3.11,8.37,8.37,0,0,1-3,2.43,4.51,4.51,0,0,1-1.44.38c-.53.15-.91.38-1.37,0a.9.9,0,0,0-.61.08,2.71,2.71,0,0,1-1.9,0c-.91-.15-1.82-.38-2.81-.61a7,7,0,0,1-1.75-.3,1.84,1.84,0,0,1-.91-.53,11.82,11.82,0,0,1-2.35-3.49l-1-2c-.3-1.22.38-2.35.61-3.65a9.05,9.05,0,0,1,1.14-2.66,11.59,11.59,0,0,0,.76-2.28l.76-1.67a8.58,8.58,0,0,0,1-2.51,6.82,6.82,0,0,1,.91-1.82,9.39,9.39,0,0,0,1.21-3.27l1.21-1.22v-1c.68-.91,1.29-1.9,2.05-2.73.91-1,1.44-2.2,2.43-3.11l.91-1.06a5.89,5.89,0,0,1,4.1-2.51c.38,0,.76-.3,1.14-.23a13.22,13.22,0,0,1,3,.84c.76.3,1.67.53,1.9,1.6A5.72,5.72,0,0,1,1177.63,361.23Zm-9.5,5.24c-.68-.23-.84.3-1.14.53a3.09,3.09,0,0,0-.53.84,13.31,13.31,0,0,0-1.6,2.43,11.61,11.61,0,0,1-.84,2.05,8.15,8.15,0,0,0-1.67,3.34,1.22,1.22,0,0,1-.3.53,14.52,14.52,0,0,0-1.6,3,11.27,11.27,0,0,0-1.29,2.51,7.65,7.65,0,0,0-.3,1.75,3.12,3.12,0,0,0,.76,1.6c.15.08.07.23.15.3l1.82,1.75a3.94,3.94,0,0,0,2.66.53c.46-.53,1-.91,1.37-1.44a14.76,14.76,0,0,0,1.6-4.56,2.77,2.77,0,0,1,.3-1.37c.38-.46-.08-1,.38-1.44.15-.15.15-.53.23-.84l-.08-.08c-.3-.68.08-1.52-.38-2.13,0-.08,0-.3.08-.38.61-.61.46-1.29.46-2,0-.46.15-.91-.23-1.29.46-1.06.08-2.13.23-3.27,0-.15-.08-.46.08-.61C1168.75,367.61,1168.37,367,1168.14,366.47Zm.15-2.35h.08v-.23h-.08Zm.68.91c0-.08-.08-.15-.08-.23l-.23.46A2.27,2.27,0,0,0,1169,365Zm-.23-3.27a.07.07,0,0,1,.08.08.4.4,0,0,0,.15-.3Zm0,.91a1,1,0,0,0,.08.46l.08-.08v-.38Zm.23,1.22c0,.08.08.15.08.23.08-.08.15-.15.15-.23H1169v-.23a.28.28,0,0,0-.23.08C1168.82,363.73,1168.9,363.81,1169,363.88Zm-.08.84a.07.07,0,0,0-.08-.08C1168.82,364.8,1168.82,364.87,1168.9,364.72Zm.08-3.11.23-.15a.07.07,0,0,0-.08-.08C1169.05,361.45,1169,361.53,1169,361.61Zm.23,2.28c.08,0,.15-.08.23-.08s-.15-.15-.23-.15a.28.28,0,0,0-.08-.23l-.15.23h.23Zm0,.61-.08-.08c0,.08-.08.08-.15.23C1169.05,364.64,1169.13,364.57,1169.2,364.49Zm.84-1.9c-.3,0-.53.08-.91.08l.84.46A1.48,1.48,0,0,1,1170,362.59Zm-.53,2.66h-.3v.08h.3Zm1-.84-.53.23v-.53l-.46.38c-.08.15-.08.38.23.38,0,.38.23.38.46.23A.61.61,0,0,0,1170.49,364.42Zm-1-3.27c.08.08.15.15.23.15s-.08-.15-.15-.23A.07.07,0,0,1,1169.51,361.15Zm0,.53.23.15c0,.08.08.15.08.23.08-.08.15-.15.15-.23h-.23v-.23A.28.28,0,0,0,1169.51,361.68Zm.08-.84h.08v-.3h-.08Zm.38.76-.23-.23v.23Zm-.08,1.75a.27.27,0,0,1-.15.08.66.66,0,0,0,.23.46v.23l.3-.23H1170Zm-.08,2.51h.38v-.23l-.46.15Zm.15,2.2h-.23v.08h.23Zm.3-5.85c.08,0,.15.08.23.15v.23c.38.08.23.3.23.53h.23l.23-.23a.07.07,0,0,0,.08.08l-.23.15v.23h.46v.3h.3v.23h.23v.53h.3c-.08-.23.08-.53-.3-.53v-.23l.53-.38-.23-.3.23-.23-.53-.38h-.23v.23H1171v-.15l.76-.15v-.46h-.68a1.71,1.71,0,0,0,.38-.53c.15.08.23.23.3.3v.23h.53a1.89,1.89,0,0,0-.3.53l.76-.23a6.54,6.54,0,0,0,.53.84l.23-.38c-.3,0-.23-.23-.23-.46s.15-.53-.23-.53v-.46l.53-.15c-.23-.3-.46-.53-.83-.38v.53l-.46.46h.76c-.15.46-.53.15-.76.23v-.23h-.53v-.3h-.3c0-.15.15-.46-.23-.46l-.23-.53a.57.57,0,0,0-.3.08l-.3,1.22H1170v.23c.23.08.53-.15.76.23l-.23.3v-.3Zm-.08,4a.26.26,0,0,0-.15.08.46.46,0,0,0,.23.46C1170.27,366.54,1170.19,366.39,1170.19,366.16Zm.08-6.08c0,.15,0,.23.38.23.08-.08.08-.15.23-.23Zm.08,2.73c.08-.08.15-.15.15-.23l-.23.15A.07.07,0,0,0,1170.34,362.82Zm.68,1.06a3.5,3.5,0,0,0-.53.53,1,1,0,0,1,.46.08,2.22,2.22,0,0,0-.15.68h.23a2.84,2.84,0,0,0,.08.76l.38-.53a1.29,1.29,0,0,1,.08.53c.23-.15.3-.23.46-.23v-.3h-.53v-.23H1171a3.59,3.59,0,0,1,.76-.76l.23.23.3.23-.3.53c.38.08.61-.08.76-.53h-.46v-.23h-.3v-.23h-.23v-.53h-.3v-.23H1171v-.3l-.3-.23h-.46v.76l.76-.23v.23h.46l-.3.23Zm-.46,1.52c.08-.08.15-.15.15-.23v-.08l-.23.23C1170.57,365.33,1170.57,365.33,1170.57,365.4Zm-.08,1.52c0,.08.08.15.08.23.08-.08.15-.15.15-.23Zm0,1.82c.23-.08.38-.08.53-.23v-.08a1.29,1.29,0,0,1-.53.08Zm.23-6.68a2.15,2.15,0,0,1,.07-.68c0-.08.15-.23.23-.3v.68A.6.6,0,0,1,1170.72,362.06Zm0,7.37h.3v-.08h-.3Zm.23.53c0,.08-.08.15-.15.23l.08.08C1170.95,370.19,1170.95,370.11,1170.95,370Zm.84-3.49c-.23-.53-.53-.23-.76-.15v.38l.38.23A2,2,0,0,1,1171.79,366.47Zm-.53,3.42-.08-.08c-.08.08-.15.08-.15.23C1171.1,370,1171.18,369.88,1171.25,369.88Zm-.08.91h-.08V371h.08Zm0,.46h-.08v.3h.08Zm.08-11.17h.23c.08,0,.08.08.15.15a.27.27,0,0,0,.08-.15h-.23v-.76h-.23Zm.08,7.22v.46a3.12,3.12,0,0,1,.68-.15Zm.46-3.95h-.3l.23-.23A.28.28,0,0,0,1171.79,363.35Zm-.3,1.82h.08l.23-.15c-.08-.08-.08-.08-.15-.08S1171.56,365.1,1171.48,365.18Zm.08,3.65.23.15-.08.08c.08,0,.15.08.23.15a.07.07,0,0,0,.08-.08l-.23-.15v-.23C1171.71,368.75,1171.63,368.82,1171.56,368.82Zm.46-8.89c0-.08-.08-.08-.08-.15a.4.4,0,0,0-.15.3C1171.86,360,1171.94,359.93,1172,359.93Zm-.23,3.42.23.3h-.23Zm.23,3.57c-.08.08-.15.15-.23.15a.07.07,0,0,0,.08.08C1171.94,367.07,1172,367.07,1172,366.92Zm.53,1.22-.76.38v.23A.7.7,0,0,0,1172.54,368.14Zm-.3-7.22a.07.07,0,0,0-.08-.08l-.15.23C1172.09,361.07,1172.16,361,1172.24,360.92Zm.53,5v.53c.38-.08.23-.38.3-.53h-.3v-.23H1172C1172.16,366.16,1172.54,365.86,1172.77,365.94Zm-.76,1a.28.28,0,0,0,.23-.08l-.23-.15Zm.3,4.71h-.3v.08h.3Zm0-12.46h.23v-.08h-.23Zm.23.61-.23.15a.07.07,0,0,0,.08.08Zm-.23,4.63v.23a.27.27,0,0,1,.15-.08Zm.23,5.7h-.23v.08h.23Zm0,1h-.23v.08h.23Zm-.08-1.37v-.23h-.08v.23Zm.08-10v.08l.23-.23-.08-.08C1172.62,359.63,1172.54,359.71,1172.54,359.78Zm.23.76h.07l-.23-.23c0,.08,0,.08-.08.08C1172.62,360.47,1172.7,360.54,1172.77,360.54Zm0,5.92a.28.28,0,0,0-.23.08c.08,0,.15.08.23.15Zm0-2.51c.15-.15.3-.23.23-.23v-.15Zm.15,1.52c0,.08-.08.15-.15.23h.3Zm-.15,1.37c.15,0,.23,0,.15-.08S1172.85,366.77,1172.77,366.85Zm.15,3.65h-.08v.3h.08Zm0-7v-.15C1172.92,363.5,1172.85,363.58,1172.92,363.5Zm.08,3.27.46.23-.3-.3A.27.27,0,0,0,1173,366.77Zm.76,2.13c-.46.08-.61.15-.76.15a1.12,1.12,0,0,1,.08.53Zm.08-4.63c-.15-.15-.3-.23-.38-.38-.23.23-.61.38-.23.84Zm-.53-.91a.28.28,0,0,1-.08-.23l-.15.23Zm-.23,2.58h.46l.3.15c0-.08-.08-.08-.08-.15h-.23c0-.38-.3-.23-.46-.23Zm.08,2.28v.3h.08v-.3Zm.15-4.79.15.15a.07.07,0,0,0,.08-.08l-.23-.15Zm.08-3.11h.08v-.23h-.08Zm.38,4.86h-.38v.23c.15,0,.23-.08.38-.08Zm-.15-2.51c0-.08.08-.15.15-.23a.07.07,0,0,0-.08-.08l-.15.23Zm.38-1.37c-.15.08-.3.08-.38.15v.08h.38Zm-.15,6.38c-.08-.08-.15-.15-.15-.23l-.08.08C1173.61,367.61,1173.68,367.68,1173.84,367.68Zm-.08,1.82h-.15v.23h.15Zm.3-2.81a.69.69,0,0,0-.23-.53h-.08l.15.53Zm0,1.14c-.08,0-.15-.08-.3-.08.08.08.15.15.23.15Zm0-4.71c-.08,0-.15.08-.23.15l.08.08C1174,363.28,1174.06,363.2,1174.06,363.12Zm-.23,2.81.23-.15a.07.07,0,0,1-.08-.08C1173.91,365.78,1173.84,365.86,1173.84,365.94Zm.23-5.7h.23v-.08h-.23Zm.53,2.43c-.15,0-.3-.08-.53-.08v.53l.15.15A2.59,2.59,0,0,1,1174.6,362.67Z" transform="translate(-1063.14 -334.72)"/><path d="M1215.31,367.83l.76.68c-.3,1.14-.68,2.2-1,3.27a.68.68,0,0,1-.08.38c-.23.3-.61.61-.68,1-.15.76-.23,1.6-.3,2.35a10.7,10.7,0,0,0-1,1.82c-.3,1.06-.84,2-1.22,3-.46,1.29-1.37,2.35-1.9,3.65a10.31,10.31,0,0,1-1.82,2.89,26.73,26.73,0,0,1-3,3.49,3.71,3.71,0,0,1-1.9,1.22,10.82,10.82,0,0,0-1.67.61,1.46,1.46,0,0,1-1,0c-.53-.3-1.06-.15-1.75-.23l-2.13-2a9.43,9.43,0,0,1-1.14-1.44,1.6,1.6,0,0,1-.3-.76,11.37,11.37,0,0,0-.68-3.19,2.57,2.57,0,0,1,.23-1.82c-.08-.08-.23-.15-.23-.23,0-1.29,0-2.58-.08-3.95.61-.46-.07-1.22.46-1.67-.08-1.06.68-2,.61-3.11a3.42,3.42,0,0,1,.38-1.44c.15-.46.15-.53-.15-1.14.15-.46.3-1,.53-1.52a3.13,3.13,0,0,0-.84-.08,4.4,4.4,0,0,0-1.21,1.44c-.53.84-1.06,1.6-1.52,2.43a11.32,11.32,0,0,0-1,1.9,6.44,6.44,0,0,1-.53,1.29c-.68,1-1,2.13-1.67,3.11-.23.38-.3.91-.53,1.29-.46.68-.76,1.37-1.14,2-.76,1.29-1.21,2.73-2,4a16.75,16.75,0,0,0-1.37,2.58,7.85,7.85,0,0,0-.3.76l-1,1.06a12.71,12.71,0,0,1-1.67.23,2.79,2.79,0,0,1-2.66-1.44,24.7,24.7,0,0,0-1.6-2.28,2.67,2.67,0,0,1-.3-.84l.23-.84c.08-.38-.15-.76.23-1.06a.48.48,0,0,0,0-.46c-.46-.53-.15-1.14-.23-1.75a2.21,2.21,0,0,1,.23-1.52.78.78,0,0,0,0-.61,19.77,19.77,0,0,0,1-2.66,1.63,1.63,0,0,0-.15-1.44c-.15-.15,0-.53.08-.84a.27.27,0,0,1-.08-.15,6.9,6.9,0,0,0,1-2.89c0-.15-.08-.23,0-.3.61-.76.38-1.82.76-2.73l.84-2.58a12.86,12.86,0,0,0,.38-1.67,3.65,3.65,0,0,1,.68-2,4.09,4.09,0,0,0,.61-1.6,25.23,25.23,0,0,1,.53-2.58c.3-1.22,1-2.35,1.29-3.57l1-3.11a12.66,12.66,0,0,1,.68-1.82c.76-1.82,1.52-3.65,2.13-5.54a26.17,26.17,0,0,1,1.6-3.27l1-2.2a11.82,11.82,0,0,1,2.51-3.8c.46-.46,1.06-.76,1.52-1.14H1196a7.88,7.88,0,0,1,4.79,1.59,3.37,3.37,0,0,1,.84.61c.91.61,1,.68,1,1.52-.46.84-.84,1.52-1.29,2.2a11.55,11.55,0,0,1-1.37,2,22.18,22.18,0,0,0-1.82,2.81,9.76,9.76,0,0,0-.46,1.6,8.92,8.92,0,0,1-.84,1.44,15,15,0,0,0-.91,2.2l-.68.53a3.41,3.41,0,0,1-.83,2.73c-.46.53-.46,1.22-.91,1.82a4.25,4.25,0,0,0-.53,1.75,4.39,4.39,0,0,1-1,2.28c-.61.61-.53,1.67-1.06,2.35a6.38,6.38,0,0,0-.61,2.05,23.5,23.5,0,0,1-1,3,23,23,0,0,0-.91,3.27,10.73,10.73,0,0,0-.3,1.52,6.55,6.55,0,0,1-.53,1.6l-.68,1.52v1.22h.91a4.84,4.84,0,0,0,1.14-2.13c.84-1.06,1.44-2.35,2.2-3.49a20.53,20.53,0,0,0,1.29-2.2,15.55,15.55,0,0,1,2.81-4.18,8.17,8.17,0,0,0,.76-1.44c.68-.38.84-1.52,1.52-2.2l.15-.3c1.37-1.44,2.81-2.81,4.25-4.25a1.23,1.23,0,0,1,1.06-.38c.38-.38.68,0,1.06,0a8.88,8.88,0,0,1,2.05.3,9.42,9.42,0,0,1,2.51.68,5.12,5.12,0,0,0,1.06.84v2a4.54,4.54,0,0,0-1.52,3.27c-.76,1.67-1.52,3.19-2.05,4.71l-.91,2.05a9.16,9.16,0,0,0-.46,2.05l-.61,1.14v1.22l-.08-.08a13,13,0,0,0-.68,1.52,22.69,22.69,0,0,1-.61,2.43,2.61,2.61,0,0,0-.15,1.06,3.9,3.9,0,0,1-.53,2.28c.08.23.23.3.3.46a2.36,2.36,0,0,0-.15,1.9,7.61,7.61,0,0,1,.3,1.82l.91.46a3.66,3.66,0,0,0,2.2-1.75c.84-1.22,1.52-2.58,2.28-3.87.61-1,1.29-2,1.9-3,.53-.91.91-1.9,1.44-2.81a3.15,3.15,0,0,1,.61-1,2.49,2.49,0,0,0,.91-2.13A12.72,12.72,0,0,1,1215.31,367.83Zm-35,13.82c0,.23.08.46.08.68h.15v-.68Zm.08,2.66c.38.08.68.53,1.14.23C1180.82,384.17,1180.82,384.17,1180.37,384.32Zm1.14,1.6c-.3,0-.53.08-.84.08a4.13,4.13,0,0,1,.84.46C1181.51,386.22,1181.58,386.06,1181.51,385.91Zm-.76-3.19a2.27,2.27,0,0,0,.3-.23c0-.15-.08-.23-.08-.3l.08-.08c.38,0,.23-.3.23-.53a.28.28,0,0,0-.23.08,2,2,0,0,1-.08.53c0-.08,0-.08-.08-.08v.15a.07.07,0,0,1,.08-.08.07.07,0,0,1-.08.08A1.08,1.08,0,0,1,1180.75,382.72Zm1.6-2.13v-.76l-.46.46h-.84v-.23c-.08,0-.15.08-.23.08.08.08.15.15.23.15v.84a1.48,1.48,0,0,1,.53-.08,2.07,2.07,0,0,0-.38-.46h1l-.38.76a.63.63,0,0,0,.61-.23c.15-.3.38-.3.68-.3v.3h.46v.23c.46.08.68-.15.76-.61.08-.15-.08-.46.3-.46,0,.08.08.15.08.23l.15-.23.38-.46h-.76c-.61.23-.46.91-.91,1.29,0-.38.15-.68-.15-.91l.68-.61-.23-.23a.07.07,0,0,0,.08-.08c.08.08.15.15.15.23h.46v-.15c-.08-.08-.08-.15-.23-.23l.53-.38-.23-.46h.38l-.23-1.6c-.3.23-.46.68-.91.53v-.46h-.53V377l.53.23c.08.08.23.15.3.3s.15.15.15.23l-.76.23v-.46h-.84a4.84,4.84,0,0,0,.84.46c0,.15-.08.23-.08.3a1.8,1.8,0,0,1-1.14-.76v-.3a.28.28,0,0,0-.23.08l.23.23.23,1.22.38-.23c.08.61.08.61-.61.76v-.23a.28.28,0,0,0-.23.08l.23.15v.53l.38-.23.38.23.23.91c-.07,0-.15.08-.23.08v-.23Zm-1.29,1c0-.08-.08-.15-.15-.23a.07.07,0,0,1-.08.08C1180.9,381.51,1181,381.58,1181.05,381.58Zm0,1.44v-.08h-.23V383Zm-.15-5.77h.08V377h-.08Zm0,1.52h.08v-.23h-.08Zm3.65,4.33h-.46c-.07-.53-.61,0-.76-.38v-.38a3.2,3.2,0,0,1-.53.3l-.38-.3-.23.3-.23-.53c-.3.15,0,.61-.38.68v.08l-.68.68a3,3,0,0,0,.68.3v-.46l.46.23c0-.3.08-.53.08-1l.3.68c-.15.23-.08.68-.08,1.06h.23l.46.38v-.84l-.46-.15.46-.61c0-.08-.08-.15-.15-.23l.08-.08.15.23h1l-.23.76C1184.32,383.86,1184.55,383.71,1184.55,383.1Zm-3.49-6.46.08.08c.08-.08.15-.15.15-.23Zm0,2.58c.08,0,.08,0,.08.08.08-.08.15-.15.15-.23V379Zm0,.84a.56.56,0,0,0,.38-.08l-.23-.46a.27.27,0,0,1-.15.08Zm.76,1.29c-.23,0-.46-.15-.53.23C1181.51,381.58,1181.81,381.73,1181.81,381.35Zm-.46-4.79.15-.23-.08-.08C1181.43,376.34,1181.36,376.42,1181.36,376.57Zm0,2.51c.15-.08.38.08.46-.3C1181.58,378.85,1181.36,378.7,1181.36,379.08Zm.15,3.27a.27.27,0,0,0-.15.08.56.56,0,0,0,.15.46.07.07,0,0,0,.08-.08A1,1,0,0,1,1181.51,382.34Zm.08-7.29a1,1,0,0,0,.08.46.07.07,0,0,1,.08-.08V375Zm.23,3.19c0-.23-.08-.46-.08-.68h-.15v.68Zm0,7.52a.07.07,0,0,1-.08-.08c-.08.08-.15.15-.15.23S1181.74,385.84,1181.81,385.76Zm-.15-12.08h.08v-.23h-.08Zm.68,3.57c.15,0,.46.15.46-.23l-.23-.3-.23-.46c-.15,0-.38.08-.53.08,0,.08,0,.15.08.15h.46Zm-.3,0h.08l-.23-.23c0,.08,0,.08-.08.08C1181.89,377.18,1182,377.25,1182,377.25Zm-.08,1.29c-.07.08-.15.15-.15.23v.08l.23-.23A.07.07,0,0,1,1182,378.54Zm.23,6.61a.28.28,0,0,0,.23-.08l-.46-.23A2.22,2.22,0,0,0,1182.19,385.15Zm.15-.76h-.3a.28.28,0,0,1,.08.23Zm-.3,1.29a1,1,0,0,1,.08.46c.23-.15.38-.23.46-.46Zm1.06-11.09v.15h.46V375c.08.08.15.15.23.15l-.23.15V375c-.08.08-.08.08-.15.08l.15.23s0,.08.23.23l.46.3-1.14-.38a1.08,1.08,0,0,0-.15-.46c-.15,0-.23.08-.38.08l.23.38-.61.23,2.13.46-.23.68.84-.46a1.89,1.89,0,0,1-.3-.53l.23-.23c-.15-.15-.3-.23-.38-.38-.08.23-.15.3-.38.3a6.13,6.13,0,0,1,.08-1.14l.3.61h.38a2.3,2.3,0,0,0-.76-1h-.23l.23-.84-.23-.46c-.08.08-.23.23-.23.3a4.32,4.32,0,0,0-.08,1h.3l-.3.23V374c-.08,0-.08.08-.15.08l.15.15.23.46a.28.28,0,0,0-.23.08v-.3Zm-.76-.76a.28.28,0,0,0,.23.08l-.15-.15A.07.07,0,0,0,1182.34,373.83Zm.46,2.2a.45.45,0,0,0-.46.23c.15,0,.3-.08.46-.08Zm.76,6.08c.08,0,.15,0,.3-.15a.66.66,0,0,0-.3-.61c-.15-.08-.46.15-.46-.23a2,2,0,0,0-.38.46.92.92,0,0,0-.38.08c0,.15.08.38.08.53l.68-.3c0-.38.3-.23.46-.3Zm-1-8.13c0,.08.07.15.15.23a.07.07,0,0,1,.08-.08C1182.72,374.06,1182.65,374,1182.57,374Zm0,10.41c0-.08.07-.15.15-.23l.08.08C1182.72,384.32,1182.65,384.39,1182.57,384.39Zm.68,1.29a2.17,2.17,0,0,0-.68-.46,1.37,1.37,0,0,0,.07.46Zm-.15-8.66v-.23l-.3.23h.3a.28.28,0,0,0,.08.23l.15-.23Zm-.23-5.09h.46l.15.23.08-.08c-.08-.08-.15-.15-.23-.15v-.23l-.46-.23Zm.23,1.14v.08h.23v-.08Zm0,.46v.08h.23v-.08Zm0,3.27h.23c0-.08-.07-.15-.07-.23C1183.18,376.65,1183.1,376.72,1183.1,376.8Zm.46,3c-.15,0-.3.08-.46.08v-.23h.46Zm-.08-.68a1.76,1.76,0,0,1-.23-.53h.76C1183.79,378.92,1183.79,378.92,1183.48,379.08Zm-.15-7.37a1.73,1.73,0,0,1,.53.08c.08.08.15.08.15,0l.46.23c-.15-.23-.23-.3-.3-.3a.28.28,0,0,0-.23.08c0-.08,0-.08-.08-.08a1.22,1.22,0,0,0-.3-.53C1183.18,371.18,1183.41,371.48,1183.33,371.71Zm0,10.63.23-.23h-.23Zm.23,1.22v-.08h-.23v.08Zm0,2.35-.23.15a.07.07,0,0,1,.08.08C1183.48,386.06,1183.56,386,1183.56,385.91Zm-.15-15.5h.08v-.23h-.08Zm.38,13.44a.16.16,0,0,1-.15.15c0,.08,0,.08.08.08l.15-.23Zm0,1.9a.07.07,0,0,0-.08-.08c0,.08-.08.15-.08.23A.16.16,0,0,0,1183.79,385.76Zm-.08-9.5v.23h.08v-.23Zm1.44,6-.38-.68c-.15,0-.3,0-.76.38l-.23.61h.53c0-.23.08-.46.08-.76l.61.53C1185.08,382.34,1185.08,382.27,1185.15,382.27Zm-1.29-11.32c.15,0,.3-.08.46-.08v-.23C1184.17,370.72,1184,370.72,1183.86,370.95Zm.23,1.6a.07.07,0,0,1-.07-.08c-.08.08-.15.15-.15.23S1184,372.62,1184.09,372.54Zm-.15-4.41h.08v-.3h-.08Zm0,1h.08v-.23h-.08Zm0,.53h.08v-.23h-.08Zm.15,4.33.23-.15a.07.07,0,0,0-.08-.08Zm.53,4.33h-.53a2.76,2.76,0,0,0,.23-.53C1184.7,377.78,1184.55,378.09,1184.62,378.32Zm-.46-11.24h.08v-.23h-.08Zm0,4.1v.23h.08v-.23Zm.15-3.27.15.46h.08v-.46Zm0,1a2.84,2.84,0,0,1,.08.76,1.28,1.28,0,0,1,.68-.15.28.28,0,0,0,.23-.08c-.08,0-.08-.08-.15-.08A4.11,4.11,0,0,0,1184.32,368.9Zm.08-4.48v.08h.46a.23.23,0,0,1-.08-.15A.68.68,0,0,0,1184.39,364.42Zm.15,8.28v-.23h-.08v.23Zm.08-7.22.08.08c.07-.08.15-.15.15-.23S1184.7,365.4,1184.62,365.48Zm.23,6.3h-.23v.08h.23Zm-.23,1.44c0,.08.08.15.08.23a3.17,3.17,0,0,1,.38-.08v-.15Zm.15,6.91a.26.26,0,0,0,.08.15h-.23C1184.7,380.29,1184.7,380.22,1184.77,380.14Zm.15,1.14.15-.15-.23-.08c0-.08-.08-.15-.15-.23,0,.08-.08.08-.08.15s.15.08.23.15S1184.93,381.2,1184.93,381.28Zm.15,1.75v-.15a.65.65,0,0,0-.46.23v.08Zm0-17.85-.08-.08-.15.23C1184.93,365.33,1185,365.25,1185.08,365.18Zm-.15,1.14h.15v-.46a.28.28,0,0,0-.23.08A3.27,3.27,0,0,1,1184.93,366.31Zm.38.3a1,1,0,0,0-.46.08c.08,0,.08.08.08.15h.38Zm-.23,2-.23.23c.08,0,.08,0,.08.08A.39.39,0,0,0,1185.08,368.59Zm-.08,6.61a.07.07,0,0,0,.08-.08l-.23-.15Zm-.15,3.57a.28.28,0,0,1,.08.23c.08-.08.15-.15.15-.23Zm.3-7.9-.15-.68h-.08v.68Zm-.23,1.82v.23h.08v-.23Zm.23,1.75L1185,374h-.08v.46Zm-.08-2.43c.08.15.08.3.15.38h.08V372Zm0,5.7h.3v-.08h-.3Zm0,1.06h.3a.24.24,0,0,1-.08-.15Zm.61,1.22a3.12,3.12,0,0,0-.15-.68,1,1,0,0,0-.46.08Zm-.3,1-.15-.15c0,.08-.08.15-.15.3h.08C1185.23,381.05,1185.31,381,1185.38,381Zm-.15-12.61c0,.08-.08.15-.08.3.08-.08.15-.15.23-.15Zm.08-1.29.15.46c.3,0,.53.61.91.08Zm0,2.51a2.66,2.66,0,0,0,.46.08c-.23-.15-.23-.23-.3-.23h-.15Zm0,9.27c.08.08.15.15.23.15a.07.07,0,0,0,.08-.08c-.08,0-.15-.08-.23-.15A.07.07,0,0,1,1185.31,378.85Zm.3-2.2v-.08h-.23v.08Zm-.15-8.81v.3h.08v-.3Zm.08,2.35v-.3h-.08v.3Zm-.08,5.54v.53h.08v-.53Zm.15-15.57h.3v-.08h-.3Zm0,.91a3.3,3.3,0,0,0,.08.38h.15v-.38Zm.15,16.71c-.08.08-.08.08-.15.08a.4.4,0,0,0,.3.15C1185.84,377.94,1185.76,377.86,1185.76,377.78Zm-.08-11.7v.23h.08v-.23Zm.23-4.18.08.08.15-.23Zm0,15.42a3.44,3.44,0,0,1,.46.68v-.68Zm.08-13.52V364h.08v-.23Zm.08,4.56v-.23H1186v.23Zm-.08,6.91v.23h.08v-.23Zm.38,3.19c-.08-.08-.15-.15-.23-.15h-.07l.23.23A.07.07,0,0,1,1186.37,378.47Zm-.23-18.53h.23v-.08h-.23Zm.23,1.82c0-.08-.08-.15-.08-.23l-.15.23Zm0,1v.08a.07.07,0,0,1,.08-.08c-.08-.08-.15-.15-.23-.15l-.08.08C1186.22,362.67,1186.29,362.74,1186.37,362.74Zm-.15,3.87v.23h.08v-.23Zm.08,13.44h-.08v.23h.08Zm.3-18.15-.23-.15.15.23A.07.07,0,0,0,1186.6,361.91Zm-.23.91.15.23.08-.08C1186.52,362.9,1186.45,362.82,1186.37,362.82Zm.08-4.63h.15v-.46h-.15Zm.46,5.54c0-.08-.08-.08-.08-.15h-.38v.23C1186.6,363.81,1186.75,363.73,1186.9,363.73Zm-.38,1.59v-.23h-.08v.23Zm-.08.23v.3h.08v-.3Zm.15,1.9a.07.07,0,0,0-.08-.08c0,.08-.08.15-.08.23C1186.52,367.53,1186.6,367.53,1186.6,367.45Zm.08-8.2v.23c.23,0,.46-.08.68-.08v-.15Zm0,.91a.07.07,0,0,1,.08.08l.15-.3Zm.15.84v-.23h-.07V361Zm-.07.23v.3h.07v-.3Zm.15-1.22.23-.15a.07.07,0,0,0-.08-.08C1187,359.86,1186.9,359.93,1186.9,360Zm0,1.82V362h.46v-.23C1187.21,361.76,1187.05,361.83,1186.9,361.83Zm0,3.11c.08,0,.15.08.3.08l-.23-.15Zm.08-8.74h.08v-.3H1187Zm0,2.73h.08v-.76H1187Zm.08,7.37H1187v.3h.08Zm.61-1.75v-.3l-.61.3Zm-.53.53.15.23.08-.08C1187.28,365.18,1187.21,365.1,1187.13,365.1Zm.08-9.57c0,.08.08.08.23.15-.08-.08-.15-.15-.15-.23A.07.07,0,0,0,1187.21,355.53Zm0,1.6.08.08c0-.08.08-.15.08-.3C1187.28,357,1187.21,357,1187.21,357.12Zm.53,5.92c.08,0-.08-.15-.3-.46v1l-.08-.08c-.08.08-.15.15-.15.23l.08.08c0-.08.08-.15.15.08Zm-.3-6.08c.07-.08.15-.15.23-.15l-.08-.08C1187.51,356.74,1187.43,356.82,1187.43,357Zm.23,1.44-.23.23a.07.07,0,0,1,.07.08Zm0-3.11c.08,0,.15.08.23.08h.08l-.23-.23C1187.74,355.23,1187.74,355.23,1187.66,355.3Zm.15.84a.07.07,0,0,0,.08-.08l-.23-.15C1187.66,356,1187.74,356.06,1187.81,356.14Zm.08,1.75a.57.57,0,0,0-.08-.38h-.15v.38Zm-.23.61c.08-.08.15-.15.23-.15a.07.07,0,0,0-.08-.08C1187.74,358.34,1187.66,358.34,1187.66,358.49Zm.46.46a1,1,0,0,1-.46.08v.15C1187.81,359.17,1188,359.17,1188.12,358.95Zm0-3.49h-.23c.08.08.08.08.08.15S1188,355.53,1188.12,355.45Zm.3,5.85h-.53v.15h.53Zm-.38,1H1188v.23h.08Zm.38-7.44c-.15.15-.23.15-.23.23v.15Zm-.23,2.13v.46h.15V357Zm0,2.05.23-.23c-.08,0-.08,0-.08-.08A.4.4,0,0,0,1188.19,359Zm.08.46a.07.07,0,0,1-.08.08c.08.08.15.15.23.15S1188.34,359.55,1188.27,359.48Zm-.08,1.44h.23v-.08h-.23Zm.46-4.71a.07.07,0,0,1,.08-.08l-.23-.23c0,.08,0,.08-.08.15C1188.5,356.06,1188.57,356.14,1188.65,356.21Zm-.23,3.57.23.23a.28.28,0,0,1,.08.23l.23-.23h-.3v-.3A.28.28,0,0,0,1188.42,359.78Zm.08-6.84a.16.16,0,0,0,.15.15l.53.46a5.75,5.75,0,0,0-.08-1.22c-.23.15-.3.3-.46.38v.15c.08.08.15.15.23.15a.28.28,0,0,1-.23.08v-.23A.27.27,0,0,0,1188.5,352.95Zm0,5v.23h.08V358Zm.08,3.8h-.08v.3h.08Zm.38-2.05-.15-.46h-.15v.46Zm-.07-5.85v-.23h-.15v.23Zm-.15.53v.23h.15v-.23Zm0,.53v.46h.15v-.46Zm.68,1.75c0-.15,0-.3-.38-.23l-.15.15A1.48,1.48,0,0,0,1189.41,356.67ZM1189,352h.23V352H1189Zm.15,6.15v-.46H1189v.46Zm.08.61H1189v.08h.23Zm-.08,1.14-.15-.23v.3C1189,359.93,1189,359.93,1189.1,359.93Zm.3-4.86V355h-.23v.08Zm-.15-4h.08v-.3h-.08Zm0,2.73h.08v-.23h-.08Zm.15.76h.76a1.1,1.1,0,0,1,.15-.46h.61c0,.15.07.3.07.46h.23c-.08-.15-.08-.3-.3-.46l.23-.3.3-.23h-.76c-.08-.53-.23-.68-.76-.76v-.23a.28.28,0,0,0-.23.08l.23.15a.57.57,0,0,1-.08.3l.08-.08c.08.08.23.15.23.23,0,.46.3.3.53.3-.08.46-.46.15-.61.38Zm.08-2.58.08.08c0-.08.07-.15.15-.23l-.08-.08Zm.15,4.94h-.15v.23h.15Zm0,.46h-.15v.3h.15Zm.15-4.33v.23l-.15.38c.23-.15.3-.15.3-.23s-.08-.15-.08-.23S1189.79,353.17,1189.79,353.1Zm-.08-2.2V351h.46a.28.28,0,0,0-.08-.23A.57.57,0,0,1,1189.71,350.9Zm0,.3v.61l.46-.23Zm.15,6.76h-.08v.23h.08Zm.08-8.74h.23v-.08h-.23Zm.15,3.19c-.08.08-.15.08-.15.23.08-.08.15-.15.23-.15A.07.07,0,0,0,1190.09,352.41Zm.08,4c-.08,0-.15.08-.23.15a.07.07,0,0,1,.08.08C1190.09,356.59,1190.17,356.52,1190.17,356.44Zm-.08-.53v-.23H1190v.23Zm.61-3.57c0,.08.08.15.08.23.08-.08.15-.15.15-.23h-.23c0-.15.15-.46-.23-.46C1190.47,352,1190.32,352.34,1190.7,352.34Zm-.08,2.05h-.08v.23h.08Zm.08-6.53c.08.08.15.15.23.15h.07l-.23-.23C1190.78,347.86,1190.78,347.86,1190.7,347.86Zm0,.84c.08,0,.15.08.23.08v.08a.07.07,0,0,1,.07-.08l-.23-.23C1190.78,348.62,1190.78,348.62,1190.7,348.69Zm.23,7.44a1,1,0,0,0-.08-.46h-.08v.46Zm0-10.48a2.59,2.59,0,0,0,.38.61,2.06,2.06,0,0,1,.46-.38l-.76-.3Zm0,1.75v.08h.3v-.08Zm0,.68c.3.3.53.3.76-.08-.15-.08-.23-.15-.38-.15A.69.69,0,0,0,1190.93,348.08Zm0,.76.23.23a.69.69,0,0,1,.91,0l.15-.3A1,1,0,0,0,1190.93,348.84Zm.3,3.49a.28.28,0,0,0-.08-.23l-.23.23Zm-.08-5.54v-.3H1191v.3Zm.08,4.33c0-.08-.08-.15-.08-.23H1191Zm0,.23h-.08c-.08,0-.08.08-.15.15a.07.07,0,0,0,.08.08Zm-.08,3.57H1191v.23h.15Zm0-2.51.23.15.08-.08c-.08,0-.15-.08-.23-.15Zm.53-1.6v-.46c-.23.15-.46.23-.46.46Zm0,.46v-.15h-.46v.23C1191.38,351.35,1191.54,351.27,1191.69,351.27Zm-.23.68a.07.07,0,0,1-.08-.08c-.08.08-.15.15-.15.23S1191.38,352,1191.46,352Zm0,1.44v.23h.53c0-.23-.08-.38-.08-.53a1.58,1.58,0,0,1-.46.3v-.08l-.15-.15a.07.07,0,0,0-.08.08Zm.91-3.42c-.46-.15-.61-.3-.91-.38v.46A4,4,0,0,0,1192.37,350Zm-.68,4.48h-.23v.08h.23Zm-.15-9.72h.08v-.23h-.08Zm.38,3.11-.08-.08c0,.08-.08.15-.15.23a.07.07,0,0,0,.08.08C1191.84,348,1191.91,347.93,1191.91,347.86Zm-.08-2.35h.08v-.23h-.08Zm0,1.75h.08V347h-.08Zm0,4.33v.3h.08v-.3Zm.15-2.2v.08h.23v-.08Zm0,1.9a.07.07,0,0,1,.08.08l.15-.23c.08-.08.15-.15.23-.15a.07.07,0,0,0-.08-.08c-.07,0-.07.08-.15.23V351Zm.08-6.76h.08v-.3h-.08Zm0,2h.08V346h-.08Zm.23,1c.07.15.15.23.15.3l.84-.38a.68.68,0,0,1-.08-.38h-.46c-.08.08-.15.15-.15.23l-.15-.23C1192.14,347.1,1192.14,347.25,1192.29,347.48Zm-.08-2.58h.23v-.08h-.23Zm.23,3.65a2.52,2.52,0,0,0,0-.76c-.08.08-.23.23-.23.3v.68C1192.29,348.69,1192.45,348.62,1192.45,348.54Zm0,3c-.08.08-.15.15-.23.15l.08.08C1192.37,351.73,1192.45,351.73,1192.45,351.58Zm-.15-6.08v.23h.07v-.23Zm.38,1.06h-.23V347h.3A1,1,0,0,1,1192.67,346.57Zm.53,3.42a3.05,3.05,0,0,0-.38-.68l-.38.46C1192.75,349.83,1192.83,350.36,1193.21,350Zm0-6v-.23a2.12,2.12,0,0,0-.68.08V344h.68l-.23.53c.23-.15.68.23.76-.3.3,0,.23-.23.23-.46h.08c.08-.08.15-.15.23-.15-.08-.08-.08-.08-.15-.08a1,1,0,0,0-.15.23v-.08c-.3,0-.15-.3-.23-.46h-.53v.53l.3.23Zm-.68,2.2.08.08.15-.23h.46a2.59,2.59,0,0,1,.08-.84c0-.08.08-.15.23-.23l-.3-.23-.23-.23c-.3,0-.3.3-.15.38.3.23-.3.61.15.76l-.23.38a.07.07,0,0,0-.08-.08C1192.67,346,1192.6,346.11,1192.52,346.19Zm.15,5.24-.08-.08c0,.08-.08.15-.08.3C1192.6,351.58,1192.67,351.5,1192.67,351.43Zm.53-3.57a1.24,1.24,0,0,0-.53.3C1193.36,348.46,1193.28,348.16,1193.21,347.86Zm-.38-4.41h.08v-.23h-.08Zm.84,5.77c-.08-.3-.23-.53-.76-.3C1193.21,349.07,1193.36,349.22,1193.66,349.22ZM1193,342c.07.08.15.15.23.15v.08l.08-.08-.23-.23C1193.05,342,1193.05,342,1193,342Zm.23,8.43H1193v.08h.23Zm.3-8.28c-.08,0-.15.08-.23.08s0,.08.08.15C1193.36,342.31,1193.43,342.24,1193.51,342.16Zm.23,3-.23-.15-.08.08c.08,0,.15.08.23.15Zm-.23-4.25h.23v-.08h-.23Zm1.06,1.44.23-.15a3.31,3.31,0,0,1-.84-.68,3.24,3.24,0,0,0,.84-.15.07.07,0,0,1-.08-.08h-.84l-.38.91a2.35,2.35,0,0,0,.76.08l-.53,1h.76l-.23-.53h.53v-.23C1194.72,342.39,1194.65,342.31,1194.57,342.31Zm-.91,4.18h-.08v.3h.08Zm.3.91h-.23v.08h.23Zm0,2.51h-.23V350h.23Zm-.08-4.48a2.22,2.22,0,0,0,.23.3.28.28,0,0,0,.23-.08A1.18,1.18,0,0,1,1193.89,345.43Zm.23-.68V345h.08v-.23Zm.08,2.05h-.08V347h.08Zm.3-2.35a.16.16,0,0,0-.15-.15.07.07,0,0,0-.08.08C1194.35,344.36,1194.35,344.44,1194.5,344.44Zm-.07,3.87h-.08v.23h.08Zm0-7.44h.38a.82.82,0,0,1-.08-.38Zm.07,3.65c0,.23.08.46.08.76a.24.24,0,0,1,.15-.08A.84.84,0,0,0,1194.5,344.51Zm0,1.29.15.15a.07.07,0,0,0,.08-.08,1,1,0,0,0-.23-.15Zm.53,1.37-.23-.15c-.08-.08-.15-.15-.15-.23s-.08.08-.15.08c.08.08.08.15.23.15s.15.15.15.23S1195,347.17,1195,347.17Zm-.23-6.76h.91l.15.91a7.91,7.91,0,0,0,.38-.91h-.46a1.48,1.48,0,0,0-.08-.53Zm.46,2.05a1.12,1.12,0,0,0-.08-.53l-.38.23v.3Zm-.46,1.67.08.08.15-.23C1195,344,1194.88,344.06,1194.8,344.13Zm.46-3.19v-.08l-.23.23c.08,0,.08,0,.08.08Zm-.15,2.51h.15a.46.46,0,0,0-.23-.46A1,1,0,0,0,1195.11,343.45Zm.15.53c0-.08-.08-.15-.08-.23l-.15.23Zm.23,1.75v-.23c-.15,0-.3.08-.46.08v.15Zm.08-1.29a1,1,0,0,0-.08-.46h-.23a1,1,0,0,1,.08.46Zm-.23-3.49c0-.08.08-.08.15-.15s0-.08-.08-.08A.28.28,0,0,0,1195.33,340.94Zm1,.46h-.84l.3.46.3.23Zm-.76,2.05V344h-.08a.16.16,0,0,1,.15.15l.38-.61C1195.86,343.53,1195.71,343.45,1195.56,343.45Zm.23,1.29c-.08,0-.15.08-.23.15l.08.08C1195.64,344.89,1195.71,344.89,1195.79,344.74Zm-.08-1.52V343h-.08v.23Zm.38.91a2.14,2.14,0,0,0-.3.23c0,.08.07.15.07.23Zm0-1.44h.15a.46.46,0,0,0-.23-.46C1196,342.39,1196.09,342.54,1196.09,342.69Zm-.08.3c0,.08.08.15.08.23.15-.08.3-.08.46-.3A1.29,1.29,0,0,1,1196,343Zm.3-3.42a.07.07,0,0,1,.08.08l.15-.3Zm0,1.82,1,.23a1.58,1.58,0,0,0-.3-.46C1196.78,341.25,1196.4,340.94,1196.32,341.4Zm.08-1.52v.3h.08v-.3Zm.08,3.57h-.08v.3h.08Zm.07-4.1v.08c.08-.08.15-.15.23-.15a.07.07,0,0,0-.08-.08C1196.62,339.27,1196.55,339.27,1196.55,339.35Zm.53,3.87a1.33,1.33,0,0,1-.08-.46l-.23-.46c-.08.08-.15.15-.23.15v.46Zm-.38-1.06v-.23h-.08v.23Zm.08-2.05h.3V340h-.3Zm.15,3.34h-.08v.3h.08Zm.3-2.51c-.07.08-.15.15-.15.23s.15-.08.23-.15A.07.07,0,0,1,1197.23,340.94Zm0,28.71h-.07v.23h.07Zm.08-30.31h.23v-.15h-.23Zm.23,1.37a.07.07,0,0,1,.08-.08l-.23-.23c0,.08,0,.08-.08.08.08.08.08.15.23.15Zm-.15,25.75a.27.27,0,0,0,.15.08v-.15C1197.46,366.39,1197.38,366.39,1197.38,366.47Zm.15-25.75c.08.08.08.15.15.15s.08,0,.08-.08S1197.61,340.72,1197.54,340.72Zm.08,25.67c0-.08.08-.15.15-.23l-.08-.08-.15.23C1197.54,366.39,1197.54,366.39,1197.61,366.39Zm.08.46.08-.08c-.08-.08-.15-.15-.23-.15Zm.08-25.67h-.15v.23h.15Zm.53,27.5-.68.46h.68Zm0-.84a1.07,1.07,0,0,1-.46-.15v.46l.46.53.3-.38a.58.58,0,0,1-.3-.15Zm-.38-2h.08v-.3h-.08Zm0,1.52h.08v-.3h-.08Zm2.2,3.57-.53-.3c0,.23-.08.53.3.53.08,0,.15.15.23.23l.38-.23c.15.23.38.53.61,0a1.94,1.94,0,0,0-1-.76,1.58,1.58,0,0,0,.23-1h.38l.68-1.14-.53.23c-.15,0-.3.08-.53.08v-.15l.61-.46a2.62,2.62,0,0,1-.3-.68,2.84,2.84,0,0,0-.08-.76l.38.3.38-.23c-.08-.08-.15-.23-.3-.23s-.46.08-.46-.3l.3-.23a1.93,1.93,0,0,1,.23-1.06,7.79,7.79,0,0,0,.08,1.29h.46a1.89,1.89,0,0,1,.23,1.29c.08-.15.23-.23.23-.3.08-.23-.07-.46.3-.46v.53a3.11,3.11,0,0,1,.84-.08,2.54,2.54,0,0,0-.61-.46h-.23c0-.23-.15-.53.23-.53v.53c.38,0,.68-.08,1.06-.08l-.15-.53-.53.3-.38-.23v-.23h-.76l-.23.23v-.23l-.23-.23a.28.28,0,0,0,.23-.08v.3h.23l-.23-.3v-.23h.76v-.53c-.61-.15-.08-.46-.08-.76l-.68-.23c0-.15,0-.23-.08-.23a1.12,1.12,0,0,0-.46.08c0,.08,0,.08.08.15h.46v.53a2.18,2.18,0,0,0-.46-.23c-.15.23-.3.15-.38,0l-1.21.68c0,.38.3.23.53.3L1200,365l.23-.15.08.08c-.08,0-.15.08-.23.15l-.76.46c-.07-.15.08-.46-.3-.46a.28.28,0,0,0-.08-.23l-.15.23h.23l-.23.23v-.23a.28.28,0,0,0-.23.08l.23.15-.23.53h.46v.68a.77.77,0,0,1,.3.08l.23-.3c-.08,0-.15-.08-.23-.15.08,0,.15-.08.23-.08v.23a1,1,0,0,0,.46-.08v-.15h-.46a.65.65,0,0,1,1,0l-.68.68.23.3h.15c0,.15.08.38.08.53h-.15l-.15-.53h-.46v.76l.23.23a.28.28,0,0,0-.23.08v-.3h-.23v-.38c-.53-.15-.91-.08-1.06.38a2.23,2.23,0,0,0,.68-.15,1.26,1.26,0,0,1,.38.15l.23.3v.23h.53a5.58,5.58,0,0,1-.3,1.06h.3v.46h-.53l.23-.46h-.46v-.3c.46-.08.15-.53.23-.76l-.46.38.23.38a2.26,2.26,0,0,0-.76.3,1.36,1.36,0,0,0-.53.38l.53.38a.28.28,0,0,0-.23.08c.08,0,.15.08.23.08v-.15l.23-.23a3.59,3.59,0,0,1,.53-.53v.46h.23a3.59,3.59,0,0,0,.53.53Zm-1.52,1.52c0-.08.07-.08.07-.15l-.61-.38v.46a.65.65,0,0,0,.53,0Zm-.38,6.3h-.08v.3h.08Zm.38-12.91c-.08,0-.15.08-.23.08.08.08.08.08.23.08Zm-.08,5.85v-.3h-.15v.3Zm0,5.32h-.15v.53h.15Zm.08-6.61h-.08l.23.23a.07.07,0,0,1,.08-.08C1198.75,370.49,1198.67,370.42,1198.6,370.42Zm.23,2.2c-.08-.08-.15-.15-.23-.15h-.08l.23.23C1198.75,372.62,1198.75,372.62,1198.83,372.62Zm-.23-8.13h.23v-.08h-.23Zm.15,2.58a3.4,3.4,0,0,0-.08-.84v.84Zm1,5.09-.38-.91a1.87,1.87,0,0,1-.68.3,2.27,2.27,0,0,1,.68.23,1.62,1.62,0,0,0-.3.46,2,2,0,0,1,.38.46A.9.9,0,0,0,1199.74,372.16Zm-1,1.06h-.08v.23h.08Zm0,2.81h-.08v.23h.08Zm.08-12.61c.08,0,.15.08.23.15a.28.28,0,0,0,.08.23l.23-.23h-.3l.08-.08c-.08-.08-.15-.15-.23-.15Zm0,.53a.07.07,0,0,1,.08.08c.08-.08.15-.15.15-.23S1198.9,363.88,1198.83,364Zm.15,11h-.08v.3h.08Zm0,2.81h-.08V378h.08Zm0,6.61h-.08v.23h.08Zm.08-20v.08h.3v-.08Zm.53,6.23-.23-.76c-.46.23-.23.53-.15.76Zm-.3-3.57v-.23h-.15v.23Zm.23,5.92h-.15a1,1,0,0,0,.08.46.07.07,0,0,0,.08-.08Zm.23,1.22h-.08v.23h.08Zm0,2.05h-.08v.23h.08Zm.15-13.22.15-.15a.07.07,0,0,0-.07-.08c0,.08-.08.15-.15.23Zm.23,10.25h-.3v.08h.3Zm-.08,4.79h-.23l.15.46a.07.07,0,0,0,.07-.08Zm.08-14.28-.15-.23a.07.07,0,0,0-.08.08.16.16,0,0,0,.15.15l.23.23a.07.07,0,0,1,.08-.08Zm-.08,7.6c-.07.08-.07.15-.15.15s0,.08.08.08l.15-.23Zm0,6.38v-.23h-.15v.23Zm0,7.6h-.15v.3h.15Zm-.07-13.14.61-.15v-.15A.78.78,0,0,0,1200,372.24Zm.3-3c0,.08.08.15.08.23h-.23C1200.12,369.35,1200.19,369.28,1200.27,369.2Zm-.08-1.37h.08v.3h-.08Zm.08,4.63h-.08v.23h.08Zm0,1.75h-.08v.23h.08Zm.53-11.7a1.34,1.34,0,0,0-.46.08l.46.91a3.14,3.14,0,0,1,.08-1h.23c0,.15.08.38.08.53a.65.65,0,0,1,.46-.23c-.08-.23.08-.53-.3-.53a.28.28,0,0,0-.08-.23c0,.08-.08.15.08.23l-.23.23v-.23Zm-.46,2.89h.23v.08h-.23Zm.23,9.72V375h-.23v.08Zm-.08.38h-.08v.23h.08Zm.38,10.79h-.3v.08h.3Zm.15-16.79-.38.84h.46A3.72,3.72,0,0,0,1201,369.5Zm.08,3v-.08l-.23.23a.07.07,0,0,1,.08.08Zm0,1.14v-.08h-.23v.08Zm.23,1.06v-.23l-.46.15v.08Zm.53-7.29c-.15-.08-.46.08-.53-.3-.3.08-.3.3-.15.53l.23.23Zm-.76.61c.08.08.08.08.08.15a.39.39,0,0,0,.15-.3C1201.26,367.91,1201.18,368,1201.11,368Zm.23,3-.08-.08-.15.23C1201.18,371.18,1201.26,371.1,1201.33,371Zm0,1.29a.07.07,0,0,0-.08-.08l-.15.23Zm-.15-3.19v.3h.08v-.3Zm.23-3.65a2.66,2.66,0,0,0-.07-.84c.07,0,.15-.08.23-.15a1.78,1.78,0,0,0,.15.61l-.08.08Zm-.07,1.59a.6.6,0,0,0,.3-.3l-.3-.15Zm.3,3.19h-.3v.08h.3Zm0-9.12h.23v-.08h-.23Zm1.06,2.35a1,1,0,0,0-.08-.46c-.08.08-.23.23-.23.3a1,1,0,0,0,.46,1v.46a2.93,2.93,0,0,0,.68-.3v-.68h-.38l.23-.46a3.28,3.28,0,0,0-.53-.3v-.23h-.23v-.3h.23v.3l.23-.15c-.08,0-.15-.08-.23-.15v-.76h.46a1.93,1.93,0,0,1,.15.53,3.15,3.15,0,0,0,.38-.68l-.61-.3-.3.23-.46-.23-.38.76.53.46h-.53v-.46l-.23.3c-.08.15.08.46-.23.46l.38.53.23-.53h.38V363h.23v.46Zm-1.06,6.46a5.82,5.82,0,0,0,.68-1c-.38-.23-.15-.68-.23-1.14A6.68,6.68,0,0,0,1201.64,370Zm0,.84a.07.07,0,0,0,.08.08c.08-.08.15-.08.15-.23Zm.15,1.9h-.08v.23h.08Zm.23-1.9.38-.61h-.53v.46Zm.61-2.66v-.53c-.23,0-.46-.08-.53.23Zm-.23-3.34h.23a.27.27,0,0,0-.08-.15C1202.47,364.64,1202.47,364.72,1202.4,364.8Zm.08-3.8h.08v-.23h-.08Zm.08,8.66h-.08v.23h.08Zm.08-4.86.23.3v-.3Zm0,1.06a.28.28,0,0,1,.23-.08l-.23-.23Zm.23,1.6-.08-.08-.15.23C1202.7,367.61,1202.78,367.53,1202.85,367.45Zm-.08.91h-.07v.3h.07Zm.08-4c.08-.23-.08-.53.3-.53C1203.08,364,1203.23,364.26,1202.85,364.34Zm.08-3.87h.15V360h-.15Zm.23,4.86c0,.08.08.15.08.23l.15-.23Zm.76-2.28v-.53a8.66,8.66,0,0,0-.68.53h.68v.53c.61-.53.61-.53.23-1.52-.38,0-.23.3-.23.46h.23C1204.14,362.74,1204.29,363,1203.92,363Zm-.61,5.32h-.08v.3h.08Zm.23-3.27-.15.23c.08,0,.15-.08.23-.15A.07.07,0,0,0,1203.54,365.1Zm.23-5.17c.23.23.23.3.3.3s.08,0,.15-.08Zm.68,1.44v.23l.23-.46Zm.53,1.44-.46.53a2.92,2.92,0,0,1,.68-.08A.87.87,0,0,0,1205,362.82Zm-.3-2.28a.16.16,0,0,0,.15.15.07.07,0,0,0,.07-.08c-.07,0-.15-.08-.23-.15Zm.23,2.2a.16.16,0,0,0-.15-.15l-.08.08C1204.75,362.67,1204.83,362.74,1204.9,362.74Zm.3.91h-.3v.08h.3Z" transform="translate(-1063.14 -334.72)"/><path d="M1100.8,405.56a2.76,2.76,0,0,0-1.9-.82,1.42,1.42,0,0,0-1.11.39,1,1,0,0,0-.29.71.8.8,0,0,0,.25.63,4.55,4.55,0,0,0,1.43.65l.85.32a4.56,4.56,0,0,1,1.55.87,2.83,2.83,0,0,1,.83,2.11,4.07,4.07,0,0,1-1,2.8,4.4,4.4,0,0,1-3.21,1.16,4.8,4.8,0,0,1-2.24-.48,7.22,7.22,0,0,1-1.67-1.24l1.36-1.87a6.86,6.86,0,0,0,1.05.87,2.63,2.63,0,0,0,1.43.41,1.81,1.81,0,0,0,1.19-.39,1.17,1.17,0,0,0,.41-.92,1,1,0,0,0-.39-.82,5.56,5.56,0,0,0-1.33-.63l-.93-.32a3.82,3.82,0,0,1-1.58-.9,2.79,2.79,0,0,1-.68-2,3.48,3.48,0,0,1,1-2.55,3.65,3.65,0,0,1,2.8-1,5.48,5.48,0,0,1,3.37,1.12Z" transform="translate(-1063.14 -334.72)"/><path d="M1119.62,404.19a6,6,0,0,1,0,8.53,6.05,6.05,0,0,1-4.38,1.67,6.24,6.24,0,0,1-4.42-1.67,5.79,5.79,0,0,1-1.77-4.22,6.33,6.33,0,0,1,1.75-4.3,6.7,6.7,0,0,1,8.82,0Zm-6.88,1.73a3.47,3.47,0,0,0-1,2.57,3.38,3.38,0,0,0,1,2.55,3.33,3.33,0,0,0,2.43.94,3.44,3.44,0,0,0,2.52-1,3.4,3.4,0,0,0,1-2.53,3.57,3.57,0,0,0-1-2.55,3.64,3.64,0,0,0-2.5-1A3.48,3.48,0,0,0,1112.74,405.92Z" transform="translate(-1063.14 -334.72)"/><path d="M1136.81,413.77a5.27,5.27,0,0,1-2.5.61,6.07,6.07,0,0,1-4.45-1.65,6.07,6.07,0,0,1,0-8.57,6,6,0,0,1,4.23-1.63,6.74,6.74,0,0,1,2.72.63v3a3.59,3.59,0,0,0-2.65-1.21,3.18,3.18,0,0,0-2.31.88,3.63,3.63,0,0,0-1.07,2.62,3.31,3.31,0,0,0,3.43,3.45,3.57,3.57,0,0,0,2.6-1.17Z" transform="translate(-1063.14 -334.72)"/><path d="M1146.84,402.79v11.34h-2.62V402.79Z" transform="translate(-1063.14 -334.72)"/><path d="M1161,405h-3.79v2.19h3.6v2.21h-3.6v2.52H1161v2.21h-6.41V402.79H1161Z" transform="translate(-1063.14 -334.72)"/><path d="M1172.42,405v9.13h-2.62V405h-2.46v-2.21h7.55V405Z" transform="translate(-1063.14 -334.72)"/><path d="M1184.88,408.84l-4.06-6.05h3.09l2.28,3.52,2.28-3.52h3.09l-4.06,6.05v5.29h-2.62Z" transform="translate(-1063.14 -334.72)"/></svg>